<svg width="1440" height="773" xmlns="http://www.w3.org/2000/svg"><g><path d="M-105,-54L-132,30L30,21Z" fill="#a01145" stroke="#a01145"/><path d="M-105,-54L30,21L55,-89Z" fill="#9a0744" stroke="#9a0744"/><path d="M-105,-54L55,-89L189,-129Z" fill="#900b41" stroke="#900b41"/><path d="M55,-89L30,21L236,59Z" fill="#c0284d" stroke="#c0284d"/><path d="M55,-89L236,59L189,-129Z" fill="#b42649" stroke="#b42649"/><path d="M189,-129L236,59L350,-96Z" fill="#be3544" stroke="#be3544"/><path d="M189,-129L350,-96L672,-117Z" fill="#ab5149" stroke="#ab5149"/><path d="M350,-96L236,59L356,51Z" fill="#db4f4c" stroke="#db4f4c"/><path d="M350,-96L356,51L568,-41Z" fill="#d16054" stroke="#d16054"/><path d="M350,-96L568,-41L672,-117Z" fill="#b9685d" stroke="#b9685d"/><path d="M568,-41L356,51L544,65Z" fill="#e77963" stroke="#e77963"/><path d="M568,-41L544,65L632,65Z" fill="#e98a70" stroke="#e98a70"/><path d="M568,-41L632,65L672,-117Z" fill="#cc7d6c" stroke="#cc7d6c"/><path d="M672,-117L632,65L797,38Z" fill="#d18a72" stroke="#d18a72"/><path d="M672,-117L797,38L795,-113Z" fill="#af796e" stroke="#af796e"/><path d="M672,-117L795,-113L1114,-106Z" fill="#856f6e" stroke="#856f6e"/><path d="M795,-113L797,38L993,-79Z" fill="#9e7374" stroke="#9e7374"/><path d="M795,-113L993,-79L1114,-106Z" fill="#70656f" stroke="#70656f"/><path d="M993,-79L797,38L935,128Z" fill="#b6847c" stroke="#b6847c"/><path d="M993,-79L935,128L1079,42Z" fill="#a07b7d" stroke="#a07b7d"/><path d="M993,-79L1079,42L1114,-106Z" fill="#735c79" stroke="#735c79"/><path d="M1114,-106L1079,42L1243,-93Z" fill="#624a80" stroke="#624a80"/><path d="M1114,-106L1243,-93L1416,-87Z" fill="#5f2f72" stroke="#5f2f72"/><path d="M1114,-106L1416,-87L1609,-88Z" fill="#721767" stroke="#721767"/><path d="M1243,-93L1079,42L1332,127Z" fill="#8c4f82" stroke="#8c4f82"/><path d="M1243,-93L1332,127L1426,76Z" fill="#a33b79" stroke="#a33b79"/><path d="M1243,-93L1426,76L1416,-87Z" fill="#88246f" stroke="#88246f"/><path d="M1416,-87L1426,76L1609,-88Z" fill="#9c0c63" stroke="#9c0c63"/><path d="M1609,-88L1426,76L1598,117Z" fill="#c21b64" stroke="#c21b64"/><path d="M1609,-88L1598,117L1610,247Z" fill="#de2b62" stroke="#de2b62"/><path d="M-132,30L-130,217L29,198Z" fill="#c03f46" stroke="#c03f46"/><path d="M-132,30L29,198L30,21Z" fill="#ca274f" stroke="#ca274f"/><path d="M30,21L29,198L236,59Z" fill="#e14053" stroke="#e14053"/><path d="M236,59L29,198L256,185Z" fill="#ed634f" stroke="#ed634f"/><path d="M236,59L256,185L356,51Z" fill="#f9624f" stroke="#f9624f"/><path d="M356,51L256,185L327,233Z" fill="#fb7e4d" stroke="#fb7e4d"/><path d="M356,51L327,233L544,65Z" fill="#fe855a" stroke="#fe855a"/><path d="M544,65L327,233L574,262Z" fill="#feb167" stroke="#feb167"/><path d="M544,65L574,262L632,65Z" fill="#fea970" stroke="#fea970"/><path d="M632,65L574,262L649,268Z" fill="#fbca7a" stroke="#fbca7a"/><path d="M632,65L649,268L797,38Z" fill="#f5af76" stroke="#f5af76"/><path d="M797,38L649,268L860,275Z" fill="#e9cb7f" stroke="#e9cb7f"/><path d="M797,38L860,275L935,128Z" fill="#d5ad7b" stroke="#d5ad7b"/><path d="M935,128L860,275L984,168Z" fill="#c6bc82" stroke="#c6bc82"/><path d="M935,128L984,168L1079,42Z" fill="#b4947f" stroke="#b4947f"/><path d="M1079,42L984,168L1092,174Z" fill="#ab9081" stroke="#ab9081"/><path d="M1079,42L1092,174L1332,127Z" fill="#9b7489" stroke="#9b7489"/><path d="M1332,127L1092,174L1226,251Z" fill="#a38787" stroke="#a38787"/><path d="M1332,127L1226,251L1391,370Z" fill="#b2918f" stroke="#b2918f"/><path d="M1332,127L1391,370L1485,219Z" fill="#bf7c83" stroke="#bf7c83"/><path d="M1332,127L1485,219L1426,76Z" fill="#c14c70" stroke="#c14c70"/><path d="M1426,76L1485,219L1598,117Z" fill="#ce3b67" stroke="#ce3b67"/><path d="M1598,117L1485,219L1610,247Z" fill="#d85569" stroke="#d85569"/><path d="M-130,217L-120,1009L-120,798Z" fill="#693981" stroke="#693981"/><path d="M-130,217L-120,798L-94,364Z" fill="#a1807e" stroke="#a1807e"/><path d="M-130,217L-94,364L29,198Z" fill="#c27061" stroke="#c27061"/><path d="M29,198L-94,364L123,334Z" fill="#d28172" stroke="#d28172"/><path d="M29,198L123,334L256,185Z" fill="#e98763" stroke="#e98763"/><path d="M256,185L123,334L255,392Z" fill="#f1a876" stroke="#f1a876"/><path d="M256,185L255,392L327,233Z" fill="#f9a968" stroke="#f9a968"/><path d="M327,233L255,392L398,352Z" fill="#fbbf7a" stroke="#fbbf7a"/><path d="M327,233L398,352L574,262Z" fill="#fece7b" stroke="#fece7b"/><path d="M574,262L398,352L560,365Z" fill="#ffe491" stroke="#ffe491"/><path d="M574,262L560,365L628,360Z" fill="#fef19b" stroke="#fef19b"/><path d="M574,262L628,360L649,268Z" fill="#fbef97" stroke="#fbef97"/><path d="M649,268L628,360L832,434Z" fill="#f4f9a3" stroke="#f4f9a3"/><path d="M649,268L832,434L860,275Z" fill="#e6f5a3" stroke="#e6f5a3"/><path d="M860,275L832,434L920,359Z" fill="#d4eeaa" stroke="#d4eeaa"/><path d="M860,275L920,359L984,168Z" fill="#c8dc97" stroke="#c8dc97"/><path d="M984,168L920,359L1092,174Z" fill="#b5ca8d" stroke="#b5ca8d"/><path d="M1092,174L920,359L1167,384Z" fill="#a9d5a9" stroke="#a9d5a9"/><path d="M1092,174L1167,384L1226,251Z" fill="#9ab5a4" stroke="#9ab5a4"/><path d="M1226,251L1167,384L1283,432Z" fill="#a4b5af" stroke="#a4b5af"/><path d="M1226,251L1283,432L1391,370Z" fill="#afa6a8" stroke="#afa6a8"/><path d="M1485,219L1391,370L1547,366Z" fill="#ca8495" stroke="#ca8495"/><path d="M1485,219L1547,366L1610,247Z" fill="#d57682" stroke="#d57682"/><path d="M1610,247L1547,366L1545,507Z" fill="#d88091" stroke="#d88091"/><path d="M1610,247L1545,507L1576,639Z" fill="#c08099" stroke="#c08099"/><path d="M-94,364L-120,798L-42,538Z" fill="#716884" stroke="#716884"/><path d="M-94,364L-42,538L101,479Z" fill="#b48082" stroke="#b48082"/><path d="M-94,364L101,479L123,334Z" fill="#d5897e" stroke="#d5897e"/><path d="M123,334L101,479L193,493Z" fill="#d99e87" stroke="#d99e87"/><path d="M123,334L193,493L255,392Z" fill="#e9a682" stroke="#e9a682"/><path d="M255,392L193,493L405,469Z" fill="#e4b683" stroke="#e4b683"/><path d="M255,392L405,469L398,352Z" fill="#f6c584" stroke="#f6c584"/><path d="M398,352L405,469L560,365Z" fill="#fbdb90" stroke="#fbdb90"/><path d="M560,365L405,469L479,512Z" fill="#eadf98" stroke="#eadf98"/><path d="M560,365L479,512L693,547Z" fill="#dfeea8" stroke="#dfeea8"/><path d="M560,365L693,547L628,360Z" fill="#eef3a6" stroke="#eef3a6"/><path d="M628,360L693,547L782,498Z" fill="#d8f8ad" stroke="#d8f8ad"/><path d="M628,360L782,498L832,434Z" fill="#dff8ac" stroke="#dff8ac"/><path d="M832,434L782,498L963,472Z" fill="#baeeb4" stroke="#baeeb4"/><path d="M832,434L963,472L920,359Z" fill="#c0eab0" stroke="#c0eab0"/><path d="M920,359L963,472L1167,384Z" fill="#abdfb0" stroke="#abdfb0"/><path d="M1167,384L963,472L1157,496Z" fill="#8ecfbb" stroke="#8ecfbb"/><path d="M1167,384L1157,496L1283,432Z" fill="#8fbaba" stroke="#8fbaba"/><path d="M1283,432L1157,496L1241,544Z" fill="#7cb1ba" stroke="#7cb1ba"/><path d="M1283,432L1241,544L1436,517Z" fill="#879db1" stroke="#879db1"/><path d="M1283,432L1436,517L1391,370Z" fill="#a999aa" stroke="#a999aa"/><path d="M1391,370L1436,517L1547,366Z" fill="#bd87a0" stroke="#bd87a0"/><path d="M1547,366L1436,517L1545,507Z" fill="#b6809f" stroke="#b6809f"/><path d="M-42,538L-120,798L-37,718Z" fill="#773481" stroke="#773481"/><path d="M-42,538L-37,718L124,703Z" fill="#7c468b" stroke="#7c468b"/><path d="M-42,538L124,703L101,479Z" fill="#8a738d" stroke="#8a738d"/><path d="M101,479L124,703L193,493Z" fill="#9f8a8d" stroke="#9f8a8d"/><path d="M193,493L124,703L194,687Z" fill="#8e7195" stroke="#8e7195"/><path d="M193,493L194,687L376,634Z" fill="#9a8891" stroke="#9a8891"/><path d="M193,493L376,634L405,469Z" fill="#bdb488" stroke="#bdb488"/><path d="M405,469L376,634L479,512Z" fill="#bcc992" stroke="#bcc992"/><path d="M479,512L376,634L507,728Z" fill="#9ea9a3" stroke="#9ea9a3"/><path d="M479,512L507,728L627,701Z" fill="#a7aeab" stroke="#a7aeab"/><path d="M479,512L627,701L693,547Z" fill="#a7d1b2" stroke="#a7d1b2"/><path d="M693,547L627,701L766,769Z" fill="#a5b2b1" stroke="#a5b2b1"/><path d="M693,547L766,769L868,650Z" fill="#92b7b8" stroke="#92b7b8"/><path d="M693,547L868,650L782,498Z" fill="#9adfb6" stroke="#9adfb6"/><path d="M782,498L868,650L963,472Z" fill="#91e2b5" stroke="#91e2b5"/><path d="M963,472L868,650L921,729Z" fill="#67bbc2" stroke="#67bbc2"/><path d="M963,472L921,729L1155,692Z" fill="#54acc1" stroke="#54acc1"/><path d="M963,472L1155,692L1157,496Z" fill="#5cbebe" stroke="#5cbebe"/><path d="M1157,496L1155,692L1241,544Z" fill="#4ca1c5" stroke="#4ca1c5"/><path d="M1241,544L1155,692L1313,658Z" fill="#487fc5" stroke="#487fc5"/><path d="M1241,544L1313,658L1436,517Z" fill="#6487b7" stroke="#6487b7"/><path d="M1436,517L1313,658L1390,665Z" fill="#5c6bb9" stroke="#5c6bb9"/><path d="M1436,517L1390,665L1576,639Z" fill="#6b5cb0" stroke="#6b5cb0"/><path d="M1436,517L1576,639L1545,507Z" fill="#886ea1" stroke="#886ea1"/><path d="M-37,718L-120,798L49,823Z" fill="#9d0a6f" stroke="#9d0a6f"/><path d="M-37,718L49,823L124,703Z" fill="#a22279" stroke="#a22279"/><path d="M124,703L49,823L234,798Z" fill="#bc2a77" stroke="#bc2a77"/><path d="M124,703L234,798L194,687Z" fill="#b34680" stroke="#b34680"/><path d="M194,687L234,798L376,634Z" fill="#b45e81" stroke="#b45e81"/><path d="M376,634L234,798L364,824Z" fill="#c7557b" stroke="#c7557b"/><path d="M376,634L364,824L507,728Z" fill="#c27489" stroke="#c27489"/><path d="M507,728L364,824L576,838Z" fill="#d96284" stroke="#d96284"/><path d="M507,728L576,838L627,701Z" fill="#cc8499" stroke="#cc8499"/><path d="M627,701L576,838L708,859Z" fill="#d67694" stroke="#d67694"/><path d="M627,701L708,859L766,769Z" fill="#c8859b" stroke="#c8859b"/><path d="M868,650L766,769L921,729Z" fill="#9796ae" stroke="#9796ae"/><path d="M921,729L766,769L773,937Z" fill="#bf7299" stroke="#bf7299"/><path d="M921,729L773,937L975,1013Z" fill="#cb6c8a" stroke="#cb6c8a"/><path d="M921,729L975,1013L1029,769Z" fill="#a46496" stroke="#a46496"/><path d="M921,729L1029,769L1155,692Z" fill="#727caf" stroke="#727caf"/><path d="M1155,692L1029,769L1179,779Z" fill="#6863b2" stroke="#6863b2"/><path d="M1155,692L1179,779L1313,658Z" fill="#6061b6" stroke="#6061b6"/><path d="M1313,658L1179,779L1281,835Z" fill="#7643a8" stroke="#7643a8"/><path d="M1313,658L1281,835L1390,665Z" fill="#7446aa" stroke="#7446aa"/><path d="M1390,665L1281,835L1441,781Z" fill="#892b9d" stroke="#892b9d"/><path d="M1390,665L1441,781L1576,639Z" fill="#8235a2" stroke="#8235a2"/><path d="M1576,639L1441,781L1557,808Z" fill="#9a1b93" stroke="#9a1b93"/><path d="M-120,798L-120,1009L49,823Z" fill="#b90059" stroke="#b90059"/><path d="M49,823L-120,1009L127,945Z" fill="#d20553" stroke="#d20553"/><path d="M49,823L127,945L234,798Z" fill="#d81e67" stroke="#d81e67"/><path d="M234,798L127,945L249,970Z" fill="#f1295b" stroke="#f1295b"/><path d="M234,798L249,970L364,824Z" fill="#eb365f" stroke="#eb365f"/><path d="M364,824L249,970L429,1006Z" fill="#fc4457" stroke="#fc4457"/><path d="M364,824L429,1006L576,838Z" fill="#f95b6d" stroke="#f95b6d"/><path d="M576,838L429,1006L577,956Z" fill="#ff686e" stroke="#ff686e"/><path d="M576,838L577,956L708,859Z" fill="#f47381" stroke="#f47381"/><path d="M708,859L577,956L710,956Z" fill="#f7777b" stroke="#f7777b"/><path d="M708,859L710,956L773,937Z" fill="#f17a7f" stroke="#f17a7f"/><path d="M708,859L773,937L766,769Z" fill="#dc788d" stroke="#dc788d"/><path d="M1029,769L975,1013L1106,927Z" fill="#ad5b8b" stroke="#ad5b8b"/><path d="M1029,769L1106,927L1179,779Z" fill="#864ea0" stroke="#864ea0"/><path d="M1179,779L1106,927L1281,835Z" fill="#8b3d9c" stroke="#8b3d9c"/><path d="M1281,835L1106,927L1332,975Z" fill="#a6338a" stroke="#a6338a"/><path d="M1281,835L1332,975L1441,781Z" fill="#a91d8a" stroke="#a91d8a"/><path d="M1441,781L1332,975L1411,994Z" fill="#be147b" stroke="#be147b"/><path d="M1441,781L1411,994L1534,929Z" fill="#c70778" stroke="#c70778"/><path d="M1441,781L1534,929L1557,808Z" fill="#b90080" stroke="#b90080"/><path d="M-120,1009L975,1013L429,1006Z" fill="#fe5650" stroke="#fe5650"/><path d="M-120,1009L429,1006L249,970Z" fill="#ef2649" stroke="#ef2649"/><path d="M-120,1009L249,970L127,945Z" fill="#df134c" stroke="#df134c"/><path d="M429,1006L975,1013L710,956Z" fill="#f47a6f" stroke="#f47a6f"/><path d="M429,1006L710,956L577,956Z" fill="#ff706c" stroke="#ff706c"/><path d="M710,956L975,1013L773,937Z" fill="#de7278" stroke="#de7278"/><path d="M975,1013L1411,994L1332,975Z" fill="#a6337a" stroke="#a6337a"/><path d="M975,1013L1332,975L1106,927Z" fill="#9b4785" stroke="#9b4785"/></g></svg>