<svg width="1440" height="794" xmlns="http://www.w3.org/2000/svg"><g><path d="M-43,-165L-92,162L51,-36Z" fill="#e92a26" stroke="#e92a26"/><path d="M-43,-165L51,-36L320,-99Z" fill="#f52d21" stroke="#f52d21"/><path d="M-43,-165L320,-99L718,-121Z" fill="#fe5932" stroke="#fe5932"/><path d="M-43,-165L718,-121L1055,-170Z" fill="#ff7a56" stroke="#ff7a56"/><path d="M51,-36L-92,162L125,178Z" fill="#ee6441" stroke="#ee6441"/><path d="M51,-36L125,178L320,-99Z" fill="#fa5a3c" stroke="#fa5a3c"/><path d="M320,-99L125,178L354,155Z" fill="#fd8952" stroke="#fd8952"/><path d="M320,-99L354,155L466,-15Z" fill="#fe8353" stroke="#fe8353"/><path d="M320,-99L466,-15L718,-121Z" fill="#ff7253" stroke="#ff7253"/><path d="M466,-15L354,155L507,29Z" fill="#ff9e65" stroke="#ff9e65"/><path d="M466,-15L507,29L651,23Z" fill="#ff986b" stroke="#ff986b"/><path d="M466,-15L651,23L718,-121Z" fill="#ff8a6b" stroke="#ff8a6b"/><path d="M718,-121L651,23L959,71Z" fill="#f2948d" stroke="#f2948d"/><path d="M718,-121L959,71L884,-137Z" fill="#e77885" stroke="#e77885"/><path d="M718,-121L884,-137L1055,-170Z" fill="#e27378" stroke="#e27378"/><path d="M884,-137L959,71L1055,-170Z" fill="#d46c7c" stroke="#d46c7c"/><path d="M1055,-170L959,71L1245,63Z" fill="#c07380" stroke="#c07380"/><path d="M1055,-170L1245,63L1244,-98Z" fill="#b14c6d" stroke="#b14c6d"/><path d="M1055,-170L1244,-98L1713,-133Z" fill="#9a3155" stroke="#9a3155"/><path d="M1244,-98L1245,63L1564,-17Z" fill="#984467" stroke="#984467"/><path d="M1244,-98L1564,-17L1713,-133Z" fill="#81134d" stroke="#81134d"/><path d="M1564,-17L1245,63L1565,162Z" fill="#88556f" stroke="#88556f"/><path d="M1564,-17L1565,162L1639,109Z" fill="#804466" stroke="#804466"/><path d="M1564,-17L1639,109L1713,-133Z" fill="#80174e" stroke="#80174e"/><path d="M1713,-133L1639,109L1656,349Z" fill="#804a63" stroke="#804a63"/><path d="M1713,-133L1656,349L1673,519Z" fill="#807a85" stroke="#807a85"/><path d="M1713,-133L1673,519L1685,717Z" fill="#8080aa" stroke="#8080aa"/><path d="M-92,162L-97,296L125,178Z" fill="#e98557" stroke="#e98557"/><path d="M125,178L-97,296L152,262Z" fill="#f19e69" stroke="#f19e69"/><path d="M125,178L152,262L255,273Z" fill="#fab271" stroke="#fab271"/><path d="M125,178L255,273L354,155Z" fill="#fcb66c" stroke="#fcb66c"/><path d="M354,155L255,273L501,252Z" fill="#fed482" stroke="#fed482"/><path d="M354,155L501,252L507,29Z" fill="#ffc678" stroke="#ffc678"/><path d="M507,29L501,252L651,23Z" fill="#ffbe7d" stroke="#ffbe7d"/><path d="M651,23L501,252L665,273Z" fill="#ffe596" stroke="#ffe596"/><path d="M651,23L665,273L959,71Z" fill="#f4cba4" stroke="#f4cba4"/><path d="M959,71L665,273L952,298Z" fill="#e6e6bf" stroke="#e6e6bf"/><path d="M959,71L952,298L1088,184Z" fill="#ced1ae" stroke="#ced1ae"/><path d="M959,71L1088,184L1245,63Z" fill="#bea396" stroke="#bea396"/><path d="M1088,184L952,298L1068,255Z" fill="#c8ddbf" stroke="#c8ddbf"/><path d="M1088,184L1068,255L1361,382Z" fill="#b2cdbd" stroke="#b2cdbd"/><path d="M1088,184L1361,382L1245,63Z" fill="#a9b4a3" stroke="#a9b4a3"/><path d="M1245,63L1361,382L1477,286Z" fill="#96a7a2" stroke="#96a7a2"/><path d="M1245,63L1477,286L1565,162Z" fill="#8c8685" stroke="#8c8685"/><path d="M1565,162L1477,286L1656,349Z" fill="#808897" stroke="#808897"/><path d="M1565,162L1656,349L1639,109Z" fill="#80707f" stroke="#80707f"/><path d="M-97,296L-64,964L-66,464Z" fill="#ba7d8b" stroke="#ba7d8b"/><path d="M-97,296L-66,464L126,472Z" fill="#ea958e" stroke="#ea958e"/><path d="M-97,296L126,472L152,262Z" fill="#f1a388" stroke="#f1a388"/><path d="M152,262L126,472L264,429Z" fill="#faba9b" stroke="#faba9b"/><path d="M152,262L264,429L255,273Z" fill="#fcc390" stroke="#fcc390"/><path d="M255,273L264,429L501,252Z" fill="#feda9b" stroke="#feda9b"/><path d="M501,252L264,429L472,469Z" fill="#ffe5b5" stroke="#ffe5b5"/><path d="M501,252L472,469L665,273Z" fill="#fff6bd" stroke="#fff6bd"/><path d="M665,273L472,469L665,484Z" fill="#fffbd4" stroke="#fffbd4"/><path d="M665,273L665,484L871,501Z" fill="#f6fcec" stroke="#f6fcec"/><path d="M665,273L871,501L952,298Z" fill="#ebf7ed" stroke="#ebf7ed"/><path d="M952,298L871,501L1020,492Z" fill="#d7edf3" stroke="#d7edf3"/><path d="M952,298L1020,492L1068,255Z" fill="#cce5e1" stroke="#cce5e1"/><path d="M1068,255L1020,492L1361,382Z" fill="#b5d1dc" stroke="#b5d1dc"/><path d="M1361,382L1020,492L1220,583Z" fill="#a1c8e1" stroke="#a1c8e1"/><path d="M1361,382L1220,583L1517,498Z" fill="#88abd2" stroke="#88abd2"/><path d="M1361,382L1517,498L1477,286Z" fill="#899cc2" stroke="#899cc2"/><path d="M1477,286L1517,498L1656,349Z" fill="#808bb8" stroke="#808bb8"/><path d="M1656,349L1517,498L1673,519Z" fill="#7c80bb" stroke="#7c80bb"/><path d="M-66,464L-64,964L-31,680Z" fill="#91557b" stroke="#91557b"/><path d="M-66,464L-31,680L126,472Z" fill="#cf9794" stroke="#cf9794"/><path d="M126,472L-31,680L26,714Z" fill="#b38593" stroke="#b38593"/><path d="M126,472L26,714L355,769Z" fill="#b59399" stroke="#b59399"/><path d="M126,472L355,769L264,429Z" fill="#d9c1a9" stroke="#d9c1a9"/><path d="M264,429L355,769L472,469Z" fill="#dbd6b6" stroke="#dbd6b6"/><path d="M472,469L355,769L566,670Z" fill="#becebf" stroke="#becebf"/><path d="M472,469L566,670L665,484Z" fill="#e1f5d4" stroke="#e1f5d4"/><path d="M665,484L566,670L845,656Z" fill="#c5e9e6" stroke="#c5e9e6"/><path d="M665,484L845,656L871,501Z" fill="#d0f4fa" stroke="#d0f4fa"/><path d="M871,501L845,656L1020,492Z" fill="#bcebf6" stroke="#bcebf6"/><path d="M1020,492L845,656L1059,782Z" fill="#90c8eb" stroke="#90c8eb"/><path d="M1020,492L1059,782L1220,583Z" fill="#82c0e6" stroke="#82c0e6"/><path d="M1220,583L1059,782L1265,816Z" fill="#548acb" stroke="#548acb"/><path d="M1220,583L1265,816L1322,745Z" fill="#4a7fc5" stroke="#4a7fc5"/><path d="M1220,583L1322,745L1517,498Z" fill="#6197d1" stroke="#6197d1"/><path d="M1517,498L1322,745L1558,666Z" fill="#467ac2" stroke="#467ac2"/><path d="M1517,498L1558,666L1673,519Z" fill="#5a7cbd" stroke="#5a7cbd"/><path d="M1673,519L1558,666L1685,717Z" fill="#4061b3" stroke="#4061b3"/><path d="M-31,680L-64,964L26,714Z" fill="#793b6e" stroke="#793b6e"/><path d="M26,714L-64,964L167,866Z" fill="#703068" stroke="#703068"/><path d="M26,714L167,866L355,769Z" fill="#8b6380" stroke="#8b6380"/><path d="M355,769L167,866L287,888Z" fill="#7d5f7e" stroke="#7d5f7e"/><path d="M355,769L287,888L540,830Z" fill="#817990" stroke="#817990"/><path d="M355,769L540,830L566,670Z" fill="#98a3ab" stroke="#98a3ab"/><path d="M566,670L540,830L779,748Z" fill="#9bb4c1" stroke="#9bb4c1"/><path d="M566,670L779,748L845,656Z" fill="#a5c7de" stroke="#a5c7de"/><path d="M779,748L540,830L765,943Z" fill="#7a90bb" stroke="#7a90bb"/><path d="M779,748L765,943L855,892Z" fill="#7084ca" stroke="#7084ca"/><path d="M779,748L855,892L845,656Z" fill="#82a7db" stroke="#82a7db"/><path d="M845,656L855,892L1059,782Z" fill="#6f9bd5" stroke="#6f9bd5"/><path d="M1059,782L855,892L1027,894Z" fill="#5276c2" stroke="#5276c2"/><path d="M1059,782L1027,894L1265,816Z" fill="#3c6dbc" stroke="#3c6dbc"/><path d="M1322,745L1265,816L1423,846Z" fill="#2552ae" stroke="#2552ae"/><path d="M1322,745L1423,846L1558,666Z" fill="#2654af" stroke="#2654af"/><path d="M1558,666L1423,846L1677,844Z" fill="#10339e" stroke="#10339e"/><path d="M1558,666L1677,844L1685,717Z" fill="#1e389e" stroke="#1e389e"/><path d="M-64,964L765,943L287,888Z" fill="#7f5972" stroke="#7f5972"/><path d="M-64,964L287,888L167,866Z" fill="#783164" stroke="#783164"/><path d="M287,888L765,943L540,830Z" fill="#7f7698" stroke="#7f7698"/><path d="M765,943L1677,844L1027,894Z" fill="#3550ad" stroke="#3550ad"/><path d="M765,943L1027,894L855,892Z" fill="#6373bc" stroke="#6373bc"/><path d="M1027,894L1677,844L1423,846Z" fill="#15359f" stroke="#15359f"/><path d="M1027,894L1423,846L1265,816Z" fill="#2950ae" stroke="#2950ae"/></g></svg>