<svg width="1440" height="794" xmlns="http://www.w3.org/2000/svg"><g><path d="M-313,-272L-328,452L-28,322Z" fill="#d76438" stroke="#d76438"/><path d="M-313,-272L-28,322L153,145Z" fill="#e64432" stroke="#e64432"/><path d="M-313,-272L153,145L262,-180Z" fill="#ee1f1a" stroke="#ee1f1a"/><path d="M-313,-272L262,-180L512,-184Z" fill="#f93621" stroke="#f93621"/><path d="M-313,-272L512,-184L1253,-135Z" fill="#ff7149" stroke="#ff7149"/><path d="M262,-180L153,145L512,-184Z" fill="#fe5539" stroke="#fe5539"/><path d="M512,-184L153,145L646,247Z" fill="#ffa366" stroke="#ffa366"/><path d="M512,-184L646,247L740,138Z" fill="#ffb783" stroke="#ffb783"/><path d="M512,-184L740,138L893,-126Z" fill="#f88279" stroke="#f88279"/><path d="M512,-184L893,-126L1253,-135Z" fill="#e27378" stroke="#e27378"/><path d="M893,-126L740,138L1267,85Z" fill="#d49691" stroke="#d49691"/><path d="M893,-126L1267,85L1253,-135Z" fill="#b75873" stroke="#b75873"/><path d="M1253,-135L1267,85L1436,-82Z" fill="#9d3e65" stroke="#9d3e65"/><path d="M1253,-135L1436,-82L1807,-40Z" fill="#82144d" stroke="#82144d"/><path d="M1436,-82L1267,85L1728,332Z" fill="#856375" stroke="#856375"/><path d="M1436,-82L1728,332L1807,-40Z" fill="#803a5d" stroke="#803a5d"/><path d="M1807,-40L1728,332L1866,114Z" fill="#80565d" stroke="#80565d"/><path d="M-28,322L-328,452L99,589Z" fill="#df878c" stroke="#df878c"/><path d="M-28,322L99,589L153,145Z" fill="#f2a68c" stroke="#f2a68c"/><path d="M153,145L99,589L406,608Z" fill="#f9c2a7" stroke="#f9c2a7"/><path d="M153,145L406,608L646,247Z" fill="#ffe4a9" stroke="#ffe4a9"/><path d="M646,247L406,608L816,407Z" fill="#fffeda" stroke="#fffeda"/><path d="M646,247L816,407L740,138Z" fill="#f6fcc6" stroke="#f6fcc6"/><path d="M740,138L816,407L1267,85Z" fill="#d8dfba" stroke="#d8dfba"/><path d="M1267,85L816,407L1153,613Z" fill="#c1dce0" stroke="#c1dce0"/><path d="M1267,85L1153,613L1431,602Z" fill="#a2bad8" stroke="#a2bad8"/><path d="M1267,85L1431,602L1728,332Z" fill="#8698b7" stroke="#8698b7"/><path d="M1728,332L1431,602L1641,735Z" fill="#5c7bbc" stroke="#5c7bbc"/><path d="M1728,332L1641,735L1840,736Z" fill="#4b6cae" stroke="#4b6cae"/><path d="M1728,332L1840,736L1992,522Z" fill="#6680a6" stroke="#6680a6"/><path d="M1728,332L1992,522L1866,114Z" fill="#80808e" stroke="#80808e"/><path d="M-328,452L-56,1274L-29,788Z" fill="#5f145a" stroke="#5f145a"/><path d="M-328,452L-29,788L99,589Z" fill="#ac7189" stroke="#ac7189"/><path d="M99,589L-29,788L31,882Z" fill="#895279" stroke="#895279"/><path d="M99,589L31,882L406,608Z" fill="#a88592" stroke="#a88592"/><path d="M406,608L31,882L313,1094Z" fill="#7d5478" stroke="#7d5478"/><path d="M406,608L313,1094L534,965Z" fill="#7f6787" stroke="#7f6787"/><path d="M406,608L534,965L879,946Z" fill="#808fac" stroke="#808fac"/><path d="M406,608L879,946L816,407Z" fill="#b3d7e0" stroke="#b3d7e0"/><path d="M816,407L879,946L1153,613Z" fill="#91c6ea" stroke="#91c6ea"/><path d="M1153,613L879,946L1182,894Z" fill="#4878c2" stroke="#4878c2"/><path d="M1153,613L1182,894L1431,602Z" fill="#5086c8" stroke="#5086c8"/><path d="M1431,602L1182,894L1641,735Z" fill="#2b5ab2" stroke="#2b5ab2"/><path d="M1992,522L1840,736L2063,1114Z" fill="#0e2677" stroke="#0e2677"/><path d="M-29,788L-56,1274L31,882Z" fill="#6a1549" stroke="#6a1549"/><path d="M31,882L-56,1274L313,1094Z" fill="#742b3f" stroke="#742b3f"/><path d="M534,965L313,1094L497,1195Z" fill="#7f6b66" stroke="#7f6b66"/><path d="M534,965L497,1195L858,1258Z" fill="#807f76" stroke="#807f76"/><path d="M534,965L858,1258L879,946Z" fill="#747b9d" stroke="#747b9d"/><path d="M879,946L858,1258L1182,894Z" fill="#546ba0" stroke="#546ba0"/><path d="M1182,894L858,1258L1330,1214Z" fill="#3a5684" stroke="#3a5684"/><path d="M1182,894L1330,1214L1641,735Z" fill="#13288e" stroke="#13288e"/><path d="M1641,735L1330,1214L1645,1267Z" fill="#000d68" stroke="#000d68"/><path d="M1641,735L1645,1267L1840,736Z" fill="#000077" stroke="#000077"/><path d="M1840,736L1645,1267L2063,1114Z" fill="#000052" stroke="#000052"/><path d="M-56,1274L1645,1267L858,1258Z" fill="#6e787c" stroke="#6e787c"/><path d="M-56,1274L858,1258L497,1195Z" fill="#7f6945" stroke="#7f6945"/><path d="M-56,1274L497,1195L313,1094Z" fill="#7d4939" stroke="#7d4939"/><path d="M858,1258L1645,1267L1330,1214Z" fill="#233b5e" stroke="#233b5e"/></g></svg>