<svg width="1440" height="794" xmlns="http://www.w3.org/2000/svg"><g><path d="M-113,-79L-116,45L31,47Z" fill="#e52a26" stroke="#e52a26"/><path d="M-113,-79L31,47L123,-66Z" fill="#ec2a25" stroke="#ec2a25"/><path d="M-113,-79L123,-66L284,-135Z" fill="#f42b21" stroke="#f42b21"/><path d="M123,-66L31,47L283,32Z" fill="#f85338" stroke="#f85338"/><path d="M123,-66L283,32L284,-135Z" fill="#fc4a34" stroke="#fc4a34"/><path d="M284,-135L283,32L408,-24Z" fill="#fe6340" stroke="#fe6340"/><path d="M284,-135L408,-24L527,-132Z" fill="#ff6542" stroke="#ff6542"/><path d="M408,-24L283,32L356,71Z" fill="#fe8351" stroke="#fe8351"/><path d="M408,-24L356,71L470,19Z" fill="#ff8b59" stroke="#ff8b59"/><path d="M408,-24L470,19L527,-132Z" fill="#ff7855" stroke="#ff7855"/><path d="M527,-132L470,19L633,49Z" fill="#ff8a65" stroke="#ff8a65"/><path d="M527,-132L633,49L712,-52Z" fill="#ff886c" stroke="#ff886c"/><path d="M527,-132L712,-52L860,-93Z" fill="#f97e6f" stroke="#f97e6f"/><path d="M527,-132L860,-93L1420,-113Z" fill="#d96f77" stroke="#d96f77"/><path d="M712,-52L633,49L845,121Z" fill="#f7a98e" stroke="#f7a98e"/><path d="M712,-52L845,121L860,-93Z" fill="#ef9291" stroke="#ef9291"/><path d="M860,-93L845,121L1018,21Z" fill="#de9591" stroke="#de9591"/><path d="M860,-93L1018,21L1017,-80Z" fill="#d47481" stroke="#d47481"/><path d="M860,-93L1017,-80L1420,-113Z" fill="#bd5a6f" stroke="#bd5a6f"/><path d="M1017,-80L1018,21L1109,-41Z" fill="#c66f7f" stroke="#c66f7f"/><path d="M1017,-80L1109,-41L1420,-113Z" fill="#b14c6b" stroke="#b14c6b"/><path d="M1109,-41L1018,21L1090,67Z" fill="#c28086" stroke="#c28086"/><path d="M1109,-41L1090,67L1249,-31Z" fill="#b56e7d" stroke="#b56e7d"/><path d="M1109,-41L1249,-31L1420,-113Z" fill="#a54167" stroke="#a54167"/><path d="M1249,-31L1090,67L1268,65Z" fill="#ae737f" stroke="#ae737f"/><path d="M1249,-31L1268,65L1386,82Z" fill="#9f6477" stroke="#9f6477"/><path d="M1249,-31L1386,82L1420,-113Z" fill="#984267" stroke="#984267"/><path d="M1420,-113L1386,82L1523,-44Z" fill="#8a305d" stroke="#8a305d"/><path d="M1523,-44L1386,82L1515,75Z" fill="#864567" stroke="#864567"/><path d="M1523,-44L1515,75L1601,172Z" fill="#804566" stroke="#804566"/><path d="M-116,45L-119,469L-106,326Z" fill="#e18265" stroke="#e18265"/><path d="M-116,45L-106,326L-99,211Z" fill="#e27049" stroke="#e27049"/><path d="M-116,45L-99,211L31,47Z" fill="#e65339" stroke="#e65339"/><path d="M31,47L-99,211L133,238Z" fill="#ed7f4d" stroke="#ed7f4d"/><path d="M31,47L133,238L283,32Z" fill="#f97d4c" stroke="#f97d4c"/><path d="M283,32L133,238L246,258Z" fill="#fbab61" stroke="#fbab61"/><path d="M283,32L246,258L356,71Z" fill="#fea15d" stroke="#fea15d"/><path d="M356,71L246,258L368,232Z" fill="#fec26e" stroke="#fec26e"/><path d="M356,71L368,232L483,249Z" fill="#ffce79" stroke="#ffce79"/><path d="M356,71L483,249L470,19Z" fill="#ffb56f" stroke="#ffb56f"/><path d="M470,19L483,249L633,180Z" fill="#ffd083" stroke="#ffd083"/><path d="M470,19L633,180L633,49Z" fill="#ffb87e" stroke="#ffb87e"/><path d="M633,49L633,180L845,121Z" fill="#f9cb99" stroke="#f9cb99"/><path d="M845,121L633,180L843,200Z" fill="#f2deaf" stroke="#f2deaf"/><path d="M845,121L843,200L976,205Z" fill="#e1dab2" stroke="#e1dab2"/><path d="M845,121L976,205L1018,21Z" fill="#d8bba3" stroke="#d8bba3"/><path d="M1018,21L976,205L1090,67Z" fill="#caa89a" stroke="#caa89a"/><path d="M1090,67L976,205L1175,225Z" fill="#c1bfa3" stroke="#c1bfa3"/><path d="M1090,67L1175,225L1268,65Z" fill="#b19b92" stroke="#b19b92"/><path d="M1268,65L1175,225L1269,197Z" fill="#a9a495" stroke="#a9a495"/><path d="M1268,65L1269,197L1386,82Z" fill="#9e8285" stroke="#9e8285"/><path d="M1386,82L1269,197L1401,195Z" fill="#988e8a" stroke="#988e8a"/><path d="M1386,82L1401,195L1515,75Z" fill="#8c6d7a" stroke="#8c6d7a"/><path d="M1515,75L1401,195L1601,172Z" fill="#816e79" stroke="#816e79"/><path d="M-99,211L-106,326L133,238Z" fill="#e99266" stroke="#e99266"/><path d="M133,238L-106,326L83,385Z" fill="#ef9f7d" stroke="#ef9f7d"/><path d="M133,238L83,385L236,395Z" fill="#f9b48e" stroke="#f9b48e"/><path d="M133,238L236,395L246,258Z" fill="#fbbf86" stroke="#fbbf86"/><path d="M246,258L236,395L351,358Z" fill="#fdce9a" stroke="#fdce9a"/><path d="M246,258L351,358L368,232Z" fill="#fed78c" stroke="#fed78c"/><path d="M368,232L351,358L483,249Z" fill="#ffe398" stroke="#ffe398"/><path d="M483,249L351,358L472,427Z" fill="#ffe9b1" stroke="#ffe9b1"/><path d="M483,249L472,427L662,350Z" fill="#fff5bf" stroke="#fff5bf"/><path d="M483,249L662,350L633,180Z" fill="#fff9ad" stroke="#fff9ad"/><path d="M633,180L662,350L843,200Z" fill="#f8f7bc" stroke="#f8f7bc"/><path d="M843,200L662,350L802,372Z" fill="#f3fada" stroke="#f3fada"/><path d="M843,200L802,372L976,205Z" fill="#e4f2cd" stroke="#e4f2cd"/><path d="M976,205L802,372L1027,367Z" fill="#d9eedc" stroke="#d9eedc"/><path d="M976,205L1027,367L1072,356Z" fill="#cae3d4" stroke="#cae3d4"/><path d="M976,205L1072,356L1175,225Z" fill="#c2dcc1" stroke="#c2dcc1"/><path d="M1175,225L1072,356L1309,328Z" fill="#b0cbc5" stroke="#b0cbc5"/><path d="M1175,225L1309,328L1269,197Z" fill="#a7bbae" stroke="#a7bbae"/><path d="M1269,197L1309,328L1401,195Z" fill="#9baca4" stroke="#9baca4"/><path d="M1401,195L1309,328L1460,369Z" fill="#92a7b1" stroke="#92a7b1"/><path d="M1401,195L1460,369L1601,172Z" fill="#849097" stroke="#849097"/><path d="M1601,172L1460,369L1519,415Z" fill="#808fab" stroke="#808fab"/><path d="M1601,172L1519,415L1520,508Z" fill="#808cb6" stroke="#808cb6"/><path d="M1601,172L1520,508L1530,631Z" fill="#808bc1" stroke="#808bc1"/><path d="M1601,172L1530,631L1565,791Z" fill="#6688c0" stroke="#6688c0"/><path d="M1601,172L1565,791L1569,994Z" fill="#3a61b5" stroke="#3a61b5"/><path d="M-106,326L-119,469L83,385Z" fill="#e78f88" stroke="#e78f88"/><path d="M83,385L-119,469L36,555Z" fill="#e39893" stroke="#e39893"/><path d="M83,385L36,555L186,541Z" fill="#e5ab9c" stroke="#e5ab9c"/><path d="M83,385L186,541L236,395Z" fill="#fab8a2" stroke="#fab8a2"/><path d="M236,395L186,541L369,564Z" fill="#eccbab" stroke="#eccbab"/><path d="M236,395L369,564L351,358Z" fill="#fed6b0" stroke="#fed6b0"/><path d="M351,358L369,564L472,427Z" fill="#fce3bc" stroke="#fce3bc"/><path d="M472,427L369,564L488,545Z" fill="#eaeac2" stroke="#eaeac2"/><path d="M472,427L488,545L641,547Z" fill="#ecf5d0" stroke="#ecf5d0"/><path d="M472,427L641,547L662,350Z" fill="#fffbd8" stroke="#fffbd8"/><path d="M662,350L641,547L794,487Z" fill="#f4fdea" stroke="#f4fdea"/><path d="M662,350L794,487L802,372Z" fill="#f4fbed" stroke="#f4fbed"/><path d="M802,372L794,487L946,531Z" fill="#e1f5fa" stroke="#e1f5fa"/><path d="M802,372L946,531L1027,367Z" fill="#dbeff3" stroke="#dbeff3"/><path d="M1027,367L946,531L1082,472Z" fill="#c7e4f0" stroke="#c7e4f0"/><path d="M1027,367L1082,472L1072,356Z" fill="#c4dee6" stroke="#c4dee6"/><path d="M1072,356L1082,472L1225,471Z" fill="#b9d5e7" stroke="#b9d5e7"/><path d="M1072,356L1225,471L1309,328Z" fill="#aec8d8" stroke="#aec8d8"/><path d="M1309,328L1225,471L1392,570Z" fill="#9ab5d7" stroke="#9ab5d7"/><path d="M1309,328L1392,570L1460,369Z" fill="#93a8cd" stroke="#93a8cd"/><path d="M1460,369L1392,570L1520,508Z" fill="#7c9bca" stroke="#7c9bca"/><path d="M1460,369L1520,508L1519,415Z" fill="#8294c4" stroke="#8294c4"/><path d="M-119,469L-104,984L-83,836Z" fill="#7a356b" stroke="#7a356b"/><path d="M-119,469L-83,836L-21,704Z" fill="#9a5d80" stroke="#9a5d80"/><path d="M-119,469L-21,704L36,555Z" fill="#bd848f" stroke="#bd848f"/><path d="M36,555L-21,704L48,696Z" fill="#a8768c" stroke="#a8768c"/><path d="M36,555L48,696L197,669Z" fill="#b28994" stroke="#b28994"/><path d="M36,555L197,669L186,541Z" fill="#c8a29d" stroke="#c8a29d"/><path d="M186,541L197,669L369,564Z" fill="#ccb8a8" stroke="#ccb8a8"/><path d="M369,564L197,669L426,639Z" fill="#c2bdae" stroke="#c2bdae"/><path d="M369,564L426,639L488,545Z" fill="#d1d9be" stroke="#d1d9be"/><path d="M488,545L426,639L485,716Z" fill="#bfcfc0" stroke="#bfcfc0"/><path d="M488,545L485,716L641,547Z" fill="#cae1ce" stroke="#cae1ce"/><path d="M641,547L485,716L723,698Z" fill="#b9d7d2" stroke="#b9d7d2"/><path d="M641,547L723,698L794,487Z" fill="#ccefec" stroke="#ccefec"/><path d="M794,487L723,698L803,691Z" fill="#b5dff3" stroke="#b5dff3"/><path d="M794,487L803,691L946,531Z" fill="#bfeaf8" stroke="#bfeaf8"/><path d="M946,531L803,691L935,715Z" fill="#9dcfef" stroke="#9dcfef"/><path d="M946,531L935,715L1093,699Z" fill="#8bc4e9" stroke="#8bc4e9"/><path d="M946,531L1093,699L1082,472Z" fill="#a0d7ed" stroke="#a0d7ed"/><path d="M1082,472L1093,699L1225,471Z" fill="#98cfe7" stroke="#98cfe7"/><path d="M1225,471L1093,699L1302,641Z" fill="#78b3de" stroke="#78b3de"/><path d="M1225,471L1302,641L1392,570Z" fill="#79add6" stroke="#79add6"/><path d="M1392,570L1302,641L1433,696Z" fill="#548acb" stroke="#548acb"/><path d="M1392,570L1433,696L1530,631Z" fill="#4a7ec4" stroke="#4a7ec4"/><path d="M1392,570L1530,631L1520,508Z" fill="#5c8cc6" stroke="#5c8cc6"/><path d="M-21,704L-83,836L87,879Z" fill="#74376b" stroke="#74376b"/><path d="M-21,704L87,879L48,696Z" fill="#875078" stroke="#875078"/><path d="M48,696L87,879L197,669Z" fill="#916381" stroke="#916381"/><path d="M197,669L87,879L269,826Z" fill="#89617f" stroke="#89617f"/><path d="M197,669L269,826L415,772Z" fill="#978490" stroke="#978490"/><path d="M197,669L415,772L426,639Z" fill="#aca5a3" stroke="#aca5a3"/><path d="M426,639L415,772L485,716Z" fill="#a7afae" stroke="#a7afae"/><path d="M485,716L415,772L511,813Z" fill="#959da6" stroke="#959da6"/><path d="M485,716L511,813L723,698Z" fill="#9db1ba" stroke="#9db1ba"/><path d="M723,698L511,813L625,865Z" fill="#8da3b8" stroke="#8da3b8"/><path d="M723,698L625,865L848,875Z" fill="#7e99c7" stroke="#7e99c7"/><path d="M723,698L848,875L803,691Z" fill="#8baddd" stroke="#8baddd"/><path d="M803,691L848,875L935,715Z" fill="#7da6da" stroke="#7da6da"/><path d="M935,715L848,875L990,861Z" fill="#618bcc" stroke="#618bcc"/><path d="M935,715L990,861L1093,699Z" fill="#6698d3" stroke="#6698d3"/><path d="M1093,699L990,861L1116,801Z" fill="#5285c9" stroke="#5285c9"/><path d="M1093,699L1116,801L1302,641Z" fill="#5990ce" stroke="#5990ce"/><path d="M1302,641L1116,801L1242,883Z" fill="#3f70be" stroke="#3f70be"/><path d="M1302,641L1242,883L1423,826Z" fill="#2d5bb3" stroke="#2d5bb3"/><path d="M1302,641L1423,826L1433,696Z" fill="#3768b9" stroke="#3768b9"/><path d="M1433,696L1423,826L1565,791Z" fill="#1b45a8" stroke="#1b45a8"/><path d="M1433,696L1565,791L1530,631Z" fill="#2a58b1" stroke="#2a58b1"/><path d="M-83,836L-104,984L87,879Z" fill="#691257" stroke="#691257"/><path d="M87,879L-104,984L114,993Z" fill="#6f1e53" stroke="#6f1e53"/><path d="M87,879L114,993L232,927Z" fill="#793460" stroke="#793460"/><path d="M87,879L232,927L269,826Z" fill="#7b4370" stroke="#7b4370"/><path d="M269,826L232,927L394,993Z" fill="#7e5372" stroke="#7e5372"/><path d="M269,826L394,993L415,772Z" fill="#7f6784" stroke="#7f6784"/><path d="M415,772L394,993L511,813Z" fill="#7f7590" stroke="#7f7590"/><path d="M511,813L394,993L542,949Z" fill="#7f708b" stroke="#7f708b"/><path d="M511,813L542,949L625,865Z" fill="#7f7d9f" stroke="#7f7d9f"/><path d="M625,865L542,949L716,1016Z" fill="#807f9b" stroke="#807f9b"/><path d="M625,865L716,1016L848,875Z" fill="#777cb2" stroke="#777cb2"/><path d="M848,875L716,1016L870,916Z" fill="#6e79bb" stroke="#6e79bb"/><path d="M848,875L870,916L990,861Z" fill="#5f73c0" stroke="#5f73c0"/><path d="M990,861L870,916L919,1001Z" fill="#5b6fb7" stroke="#5b6fb7"/><path d="M990,861L919,1001L1088,958Z" fill="#4f67b0" stroke="#4f67b0"/><path d="M990,861L1088,958L1116,801Z" fill="#4464b8" stroke="#4464b8"/><path d="M1116,801L1088,958L1242,883Z" fill="#3655b0" stroke="#3655b0"/><path d="M1242,883L1088,958L1283,1017Z" fill="#2e489d" stroke="#2e489d"/><path d="M1242,883L1283,1017L1405,951Z" fill="#1e3694" stroke="#1e3694"/><path d="M1242,883L1405,951L1423,826Z" fill="#172e9c" stroke="#172e9c"/><path d="M1423,826L1405,951L1569,994Z" fill="#071a8b" stroke="#071a8b"/><path d="M1423,826L1569,994L1565,791Z" fill="#001891" stroke="#001891"/><path d="M114,993L716,1016L394,993Z" fill="#7f6570" stroke="#7f6570"/><path d="M114,993L394,993L232,927Z" fill="#7d4862" stroke="#7d4862"/><path d="M394,993L716,1016L542,949Z" fill="#7f7788" stroke="#7f7788"/><path d="M716,1016L1283,1017L919,1001Z" fill="#546ba4" stroke="#546ba4"/><path d="M716,1016L919,1001L870,916Z" fill="#6a77b2" stroke="#6a77b2"/><path d="M919,1001L1283,1017L1088,958Z" fill="#3e5a9f" stroke="#3e5a9f"/><path d="M1283,1017L1569,994L1405,951Z" fill="#0e2283" stroke="#0e2283"/></g></svg>