<?xml version="1.0" standalone="no"?>
<!DOCTYPE svg PUBLIC "-//W3C//DTD SVG 1.1//EN" "http://www.w3.org/Graphics/SVG/1.1/DTD/svg11.dtd" >
<svg xmlns="http://www.w3.org/2000/svg">
<metadata>
This is a custom SVG webfont generated by Font Squirrel.
Copyright   :  OurType 2005 All rights reserved Monitor is a design by Fred Smeijers
Foundry     : OurType
Foundry URL : wwwourtypecom
</metadata>
<defs>
<font id="MonitorBold" horiz-adv-x="1245" >
<font-face units-per-em="2048" ascent="1589" descent="-459" />
<missing-glyph horiz-adv-x="516" />
<glyph unicode=" "  horiz-adv-x="516" />
<glyph unicode="&#x09;" horiz-adv-x="516" />
<glyph unicode="&#xa0;" horiz-adv-x="516" />
<glyph unicode="!" horiz-adv-x="638" d="M164 0v311h311v-311h-311zM164 1442h311l-33 -983h-245z" />
<glyph unicode="&#x22;" horiz-adv-x="1015" d="M131 1442h311l-32 -410h-246zM573 1442h312l-33 -410h-246z" />
<glyph unicode="#" d="M66 311v197h196v426h-196v196h196v312h213v-312h295v312h213v-312h197v-196h-197v-426h197v-197h-197v-311h-213v311h-295v-311h-213v311h-196zM475 508h295v426h-295v-426z" />
<glyph unicode="$" d="M131 1057q0 160 105.5 258t287.5 129v211h205v-197q238 -12 336 -98v-230h-33q-127 74 -352 74q-238 0 -238 -139q0 -39 10.5 -65.5t33 -44t42 -25.5t54.5 -21l172 -57q8 -2 24 -8q70 -23 107 -37t95 -49t89 -75t54.5 -108.5t23.5 -156.5q0 -180 -119 -292t-340 -136 v-252h-205v250q-238 25 -336 110v230h50q68 -45 174 -67.5t194 -22.5q143 0 207 40.5t64 122.5q0 80 -41 114t-164 75l-172 57q-70 23 -119 48.5t-101.5 70.5t-80 118t-27.5 173z" />
<glyph unicode="%" horiz-adv-x="1900" d="M41 1040.5q0 198.5 114.5 308t303 109.5t303.5 -109.5t115 -308t-115 -312.5t-303.5 -114t-303 114t-114.5 312.5zM319 1040.5q0 -106.5 35 -151.5t104.5 -45t104.5 45t35 151.5t-34 147.5t-105.5 41t-105.5 -41t-34 -147.5zM516 0v25l680 1417h188v-25l-679 -1417h-189z M1024 409.5q0 198.5 114.5 308t303 109.5t303.5 -109.5t115 -308t-115 -312t-303.5 -113.5t-303 113.5t-114.5 312zM1303 409.5q0 -106.5 34.5 -151.5t104 -45t104.5 45t35 151.5t-34 147.5t-105.5 41t-105 -41t-33.5 -147.5z" />
<glyph unicode="&#x26;" horiz-adv-x="1523" d="M90 393q0 119 61.5 206t204.5 163q-168 154 -168 328q0 162 122 265t320.5 103t316.5 -103.5t118 -264.5q0 -121 -69.5 -204t-192.5 -149l-8 -4l260 -256q59 115 59 260h287q0 -248 -156 -448l254 -248v-41h-360l-105 100q-190 -117 -420 -116q-233 0 -378.5 108 t-145.5 301zM410 401q0 -164 237 -163q113 0 205 43l-322 313l-6 -4q-114 -62 -114 -189zM508 1081q0 -18 6 -37.5t12 -33t22.5 -33t23 -26.5t28 -27.5t23.5 -22.5l2 -4l6 4q115 55 114 189q0 53 -29.5 83.5t-84.5 30.5q-123 0 -123 -123z" />
<glyph unicode="'" horiz-adv-x="573" d="M131 1442h311l-32 -410h-246z" />
<glyph unicode="(" horiz-adv-x="720" d="M66 573v33q0 287 95 507t232 329h262v-33q-295 -295 -295 -803v-33q0 -508 295 -802v-33h-262q-137 109 -232 328.5t-95 506.5z" />
<glyph unicode=")" horiz-adv-x="720" d="M66 -229q295 295 294 802v33q0 508 -294 803v33h262q137 -109 232 -329t95 -507v-33q0 -287 -95 -507t-232 -328h-262v33z" />
<glyph unicode="*" horiz-adv-x="1081" d="M123 862l252 146l-252 145l82 143l254 -147v293h164v-293l254 147l81 -143l-251 -145l251 -146l-81 -143l-254 145v-291h-164v291l-254 -145z" />
<glyph unicode="+" d="M172 598v229h336v336h229v-336h336v-229h-336v-336h-229v336h-336z" />
<glyph unicode="," horiz-adv-x="638" d="M57 -246q106 63 107 246v311h311v-270q0 -113 -53 -189.5t-127 -113.5h-238v16z" />
<glyph unicode="-" horiz-adv-x="851" d="M131 598v229h590v-229h-590z" />
<glyph unicode="." horiz-adv-x="638" d="M164 0v311h311v-311h-311z" />
<glyph unicode="/" horiz-adv-x="1015" d="M66 -229l704 1671h180v-33l-704 -1671h-180v33z" />
<glyph unicode="0" d="M82 721q0 381 136 559t404.5 178t404.5 -178t136 -559t-136 -559t-404.5 -178t-404.5 178t-136 559zM393 720.5q0 -276.5 51.5 -379.5t178.5 -103t178 103t51 379.5t-51 380t-178 103.5t-178.5 -103.5t-51.5 -380z" />
<glyph unicode="1" d="M147 1049v254l476 139h163v-1188h279v-254h-885v254h295v876l-311 -81h-17z" />
<glyph unicode="2" d="M131 0v131l311 352q10 12 49 55.5t49.5 55.5t42 50t42 52.5t35 48t33.5 52.5l25 49q15 31 20 54.5t10.5 51t5.5 56.5q0 86 -58.5 141t-179.5 55q-180 0 -303 -98h-49v229q57 51 165.5 87t227.5 36q240 0 382 -110.5t142 -315.5q0 -39 -6 -78t-14 -70.5t-26.5 -70.5 t-30 -62.5t-39 -62.5t-40 -56.5t-45 -55t-42 -49t-45 -50.5t-39.5 -43l-164 -180h540v-254h-999z" />
<glyph unicode="3" d="M131 98v230h49q143 -90 377 -90q117 0 189.5 52t72.5 152q0 172 -229 172h-230v197q92 59 213 174t148 203h-574v254h902v-148q-35 -121 -125 -246.5t-203 -195.5h16q176 0 293 -99.5t117 -301.5q0 -215 -158 -341t-432 -126q-287 -1 -426 114z" />
<glyph unicode="4" d="M66 270v222l655 950h278v-918h148v-254h-148v-270h-311v270h-622zM295 524h393v557z" />
<glyph unicode="5" d="M147 98v230h50q55 -35 152 -62.5t200 -27.5q131 0 209 54t78 150q0 115 -64.5 164t-214.5 49h-360v787h868v-254h-573v-279h131q256 0 390 -111.5t134 -322.5q0 -231 -160 -361t-438 -130q-259 -1 -402 114z" />
<glyph unicode="6" d="M82 524v328q0 287 158.5 446.5t431.5 159.5q131 0 241.5 -31.5t167.5 -83.5v-229h-49q-121 90 -327 90q-311 0 -312 -327v-21l41 21q131 66 238 65q244 0 367.5 -118.5t123.5 -331.5q0 -233 -141 -370.5t-399 -137.5q-252 0 -396.5 138t-144.5 402zM393 524 q0 -287 229.5 -286.5t229.5 221.5q0 127 -50 178t-163 51q-106 0 -205 -49l-41 -21v-94z" />
<glyph unicode="7" d="M115 1188v254h1032v-131l-606 -1311h-312v25l574 1163h-688z" />
<glyph unicode="8" d="M82 410q0 170 205 311l41 29q-115 57 -164 132.5t-49 198.5q0 190 143 283.5t365 93.5q233 0 374.5 -90t141.5 -287q0 -27 -5.5 -53.5t-11.5 -48t-19 -44t-22.5 -36.5t-28.5 -34l-29 -28q-9 -9 -31.5 -25.5t-29 -22t-29 -20.5t-24.5 -15l-6 -4q127 -59 193.5 -137 t66.5 -203q0 -188 -160.5 -307t-379.5 -119q-236 0 -388.5 103.5t-152.5 322.5zM393 418q0 -86 59.5 -133t170 -47t170 46t59.5 126q0 88 -56.5 140t-172.5 89q-72 23 -88 29l-27 -21q-115 -86 -115 -229zM426 1057q0 -84 42 -125t155 -80l73 -25l33 25q98 76 98 205 q0 66 -58 106.5t-146 40.5q-90 0 -143.5 -37.5t-53.5 -109.5z" />
<glyph unicode="9" d="M82 967q0 231 140 361t401 130q254 0 397 -134t143 -398v-336q0 -287 -158.5 -446.5t-431.5 -159.5q-131 0 -241.5 31.5t-167.5 82.5v230h49q121 -90 328 -90q311 0 311 327v21l-41 -21q-131 -66 -238 -65q-242 0 -366.5 126t-124.5 341zM393 983q0 -127 50.5 -178 t162.5 -51q106 0 205 49l41 20v95q0 287 -229 286q-106 0 -168 -56t-62 -165z" />
<glyph unicode=":" horiz-adv-x="638" d="M164 0v311h311v-311h-311zM164 721v311h311v-311h-311z" />
<glyph unicode=";" horiz-adv-x="638" d="M57 -246q106 63 107 246v311h311v-270q0 -113 -53 -189.5t-127 -113.5h-238v16zM164 721v311h311v-311h-311z" />
<glyph unicode="&#x3c;" d="M172 614v213l885 443h16v-230l-672 -319l672 -320v-229h-16z" />
<glyph unicode="=" d="M172 360v230h901v-230h-901zM172 836v229h901v-229h-901z" />
<glyph unicode="&#x3e;" d="M172 172v229l672 320l-672 319v230h16l885 -443v-213l-885 -442h-16z" />
<glyph unicode="?" horiz-adv-x="1064" d="M98 1139v229q168 90 377 90q246 0 385 -95t139 -282q0 -139 -67.5 -225t-194.5 -168l-114 -74v-122h-312v65q0 98 90 172l91 74q92 74 136 131t44 115q0 88 -56.5 121.5t-173.5 33.5q-164 0 -295 -65h-49zM311 0v311h312v-311h-312z" />
<glyph unicode="@" horiz-adv-x="2031" d="M82 524q0 219 82 400.5t220 296t313 176t368 61.5q397 0 641 -210t244 -568q0 -244 -156 -413t-418 -169h-368q-188 0 -311.5 106.5t-123.5 319.5q0 227 131.5 343t335.5 116h336v-688h17q113 0 187.5 109.5t74.5 275.5q0 532 -590 532q-309 0 -498.5 -175t-189.5 -513 q0 -342 183 -506.5t472 -164.5q260 0 410 81h82v-196q-205 -131 -492 -131q-145 0 -278 29.5t-257 98t-215.5 172t-145.5 262t-54 355.5zM868 532q0 -115 39 -176t109 -61h65v491h-63q-150 0 -150 -254z" />
<glyph unicode="A" horiz-adv-x="1417" d="M49 0v33l492 1409h360l467 -1409v-33h-311l-84 262h-545l-84 -262h-295zM508 508h387l-190 606z" />
<glyph unicode="B" horiz-adv-x="1392" d="M180 0v1442h615q213 0 331.5 -101.5t118.5 -275.5q0 -94 -52 -172t-136 -123q238 -84 237 -360q0 -168 -129 -289t-346 -121h-639zM492 254h262q229 0 229 180q0 84 -56.5 128t-156.5 44h-278v-352zM492 852h319q123 68 123 180q0 88 -53.5 122t-159.5 34h-229v-336z" />
<glyph unicode="C" horiz-adv-x="1294" d="M82 737q0 176 60.5 316.5t164 226.5t234.5 132t278 46q123 0 230.5 -29.5t146.5 -68.5v-230h-49q-135 74 -328 74q-170 0 -294 -129t-124 -346q0 -256 119 -373.5t299 -117.5q223 0 328 90h49v-222q-61 -55 -172 -88.5t-238 -33.5q-326 0 -515 201.5t-189 551.5z" />
<glyph unicode="D" horiz-adv-x="1499" d="M180 0v1442h451q375 0 580.5 -175t205.5 -513t-186.5 -546t-550.5 -208h-500zM492 254h131q246 0 360.5 121t114.5 379q0 227 -126 330.5t-399 103.5h-81v-934z" />
<glyph unicode="E" horiz-adv-x="1212" d="M180 0v1442h918v-254h-606v-311h524v-254h-524v-369h622v-254h-934z" />
<glyph unicode="F" horiz-adv-x="1179" d="M180 0v1442h918v-254h-606v-311h524v-254h-524v-623h-312z" />
<glyph unicode="G" horiz-adv-x="1474" d="M82 737q0 180 65.5 322.5t176 226.5t244.5 128t284 44q129 0 237.5 -29.5t155.5 -68.5v-230h-49q-123 74 -344 74q-201 0 -326 -115.5t-125 -359.5q0 -272 110 -381.5t316 -109.5q106 0 189 41v245h-197v246h492v-655q-225 -131 -516 -131q-336 0 -524.5 188t-188.5 565z " />
<glyph unicode="H" horiz-adv-x="1540" d="M180 0v1442h312v-565h557v565h311v-1442h-311v623h-557v-623h-312z" />
<glyph unicode="I" horiz-adv-x="671" d="M180 0v1442h312v-1442h-312z" />
<glyph unicode="J" horiz-adv-x="925" d="M0 106v230h49q98 -98 246 -98q96 0 138 44t42 144v1016h311v-1032q0 -199 -119.5 -312.5t-338.5 -113.5q-230 -1 -328 122z" />
<glyph unicode="K" horiz-adv-x="1343" d="M180 0v1442h312v-580l540 580h311v-25l-571 -600l571 -792v-25h-335l-437 608l-79 -86v-522h-312z" />
<glyph unicode="L" horiz-adv-x="1048" d="M180 0v1442h312v-1188h524v-254h-836z" />
<glyph unicode="M" horiz-adv-x="1785" d="M180 0v1442h312l409 -590l393 590h312v-1442h-312v1012l-360 -553h-98l-344 510v-969h-312z" />
<glyph unicode="N" horiz-adv-x="1523" d="M180 0v1442h312l573 -934v934h311v-1442h-311l-573 932v-932h-312z" />
<glyph unicode="O" horiz-adv-x="1507" d="M82 721q0 354 175 545.5t497 191.5q330 0 500.5 -189.5t170.5 -547.5q0 -354 -175 -545.5t-496 -191.5q-330 0 -501 189.5t-171 547.5zM401 721q0 -483 361 -483q344 0 344 483q0 242 -91 362.5t-261 120.5q-353 0 -353 -483z" />
<glyph unicode="P" horiz-adv-x="1343" d="M180 0v1442h525q258 0 415.5 -126t157.5 -374q0 -272 -158.5 -418.5t-414.5 -146.5h-213v-377h-312zM492 631h180q295 0 295 311q0 246 -295 246h-180v-557z" />
<glyph unicode="Q" horiz-adv-x="1507" d="M82 721q0 354 175 545.5t497 191.5q330 0 500.5 -189.5t170.5 -547.5q0 -279 -109.5 -458t-316.5 -245l312 -387v-24h-328l-250 377q-322 6 -486.5 194.5t-164.5 542.5zM401 721q0 -244 93.5 -368t267.5 -124q168 0 256 124t88 368q0 242 -92 366.5t-260 124.5 q-353 1 -353 -491z" />
<glyph unicode="R" horiz-adv-x="1400" d="M180 0v1442h582q215 0 345 -102.5t130 -307.5q0 -285 -254 -418l320 -589v-25h-336l-262 508h-213v-508h-312zM492 754h270q74 33 119 92t45 137q0 113 -59.5 159t-186.5 46h-188v-434z" />
<glyph unicode="S" horiz-adv-x="1179" d="M82 1057q0 197 154.5 299t410.5 102q102 0 210 -26.5t159 -71.5v-230h-33q-127 74 -352 74q-238 0 -238 -139q0 -39 10.5 -65.5t33 -44t42 -25.5t53.5 -21l173 -57q8 -2 24 -8q70 -23 106.5 -37t95 -49t89.5 -75t54.5 -108.5t23.5 -156.5q0 -205 -150.5 -319.5 t-431.5 -114.5q-115 0 -238.5 29.5t-179.5 84.5v230h49q68 -45 174.5 -67.5t194.5 -22.5q143 0 206.5 40.5t63.5 122.5q0 80 -40.5 114t-163.5 75l-172 57q-70 23 -119 48.5t-101.5 70.5t-80 118t-27.5 173z" />
<glyph unicode="T" horiz-adv-x="1228" d="M49 1188v254h1131v-254h-410v-1188h-311v1188h-410z" />
<glyph unicode="U" horiz-adv-x="1507" d="M180 541v901h312v-869q0 -174 66.5 -254.5t211.5 -80.5t212 80.5t67 254.5v869h311v-901q0 -274 -163 -415.5t-443 -141.5q-266 0 -420 141.5t-154 415.5z" />
<glyph unicode="V" horiz-adv-x="1417" d="M49 1409v33h311l353 -1114l360 1114h295v-33l-491 -1409h-361z" />
<glyph unicode="W" horiz-adv-x="1916" d="M49 1411v31h311l230 -1114l229 704h295l229 -704l230 1114h295v-31l-320 -1411h-344l-237 696l-238 -696h-360z" />
<glyph unicode="X" horiz-adv-x="1343" d="M49 0v33l455 684l-438 692v33h335l281 -445l285 445h311v-33l-438 -659l454 -717v-33h-336l-299 471l-299 -471h-311z" />
<glyph unicode="Y" horiz-adv-x="1286" d="M49 1409v33h311l279 -582l303 582h295v-33l-459 -831v-578h-311v573z" />
<glyph unicode="Z" horiz-adv-x="1146" d="M49 0v115l615 1073h-590v254h1007v-115l-614 -1073h631v-254h-1049z" />
<glyph unicode="[" horiz-adv-x="720" d="M131 -262v1704h524v-230h-229v-1245h229v-229h-524z" />
<glyph unicode="\" horiz-adv-x="1015" d="M66 1409v33h180l704 -1671v-33h-180z" />
<glyph unicode="]" horiz-adv-x="720" d="M66 -33h229v1245h-229v230h524v-1704h-524v229z" />
<glyph unicode="^" d="M74 246v16l442 885h213l442 -885v-16h-229l-319 672l-320 -672h-229z" />
<glyph unicode="_" horiz-adv-x="1310" d="M66 0h1179v-229h-1179v229z" />
<glyph unicode="`" horiz-adv-x="458" d="M-133 1450v41h266l195 -287v-41h-164z" />
<glyph unicode="a" horiz-adv-x="1220" d="M98 295q0 166 127 255t332 89h205v16q0 74 -44 115t-153 41q-154 0 -311 -57h-49v196q182 98 442 99q188 0 299 -88.5t111 -255.5v-705h-295v90l-49 -33q-111 -74 -262 -73q-156 0 -254.5 78.5t-98.5 232.5zM393 328q0 -115 123 -115q117 0 189 41l57 33v172h-172 q-90 0 -143.5 -32.5t-53.5 -98.5z" />
<glyph unicode="b" horiz-adv-x="1261" d="M156 0v1442h295v-508l49 33q121 82 254 82q188 0 307 -125t119 -367q0 -258 -175.5 -407.5t-422.5 -149.5h-426zM451 238h131q123 0 209 70.5t86 232.5q0 145 -51.5 203.5t-145.5 58.5q-86 0 -172 -49l-57 -33v-483z" />
<glyph unicode="c" horiz-adv-x="1032" d="M82 516q0 256 159.5 394.5t397.5 138.5q205 0 303 -99v-196h-49q-98 49 -254 49q-113 0 -183.5 -67.5t-70.5 -203.5q0 -303 254 -303q150 0 254 66h49v-189q-47 -53 -144.5 -87.5t-191.5 -34.5q-233 0 -378.5 134t-145.5 398z" />
<glyph unicode="d" horiz-adv-x="1261" d="M82 483q0 262 174 405.5t424 143.5h131v410h295v-1442h-295v98l-49 -32q-123 -82 -254 -82q-186 0 -306 128.5t-120 370.5zM385 492q0 -270 197 -271q72 0 172 58l57 32v484h-131q-123 0 -209 -70.5t-86 -232.5z" />
<glyph unicode="e" horiz-adv-x="1163" d="M82 524q0 256 148.5 390.5t367.5 134.5q205 0 323.5 -114t118.5 -296v-197h-659q33 -221 274 -221q162 0 295 74h49v-197q-143 -115 -376 -114q-248 0 -394.5 139t-146.5 401zM383 623h371v32q0 80 -48.5 122t-115.5 42q-170 0 -205 -172z" />
<glyph unicode="f" horiz-adv-x="655" d="M41 803v229h131v25q0 193 110.5 289t307.5 96h139v-230h-106q-156 0 -156 -139v-41h205v-229h-205v-803h-295v803h-131z" />
<glyph unicode="g" horiz-adv-x="1269" d="M90 500q0 256 173 394t425 138h426v-950q0 -219 -153.5 -347t-403.5 -128q-102 0 -214 25.5t-163 56.5v180h66q143 -41 295 -41q125 0 201.5 62.5t76.5 191.5v57l-49 -33q-123 -82 -254 -81q-199 0 -312.5 116.5t-113.5 358.5zM393 492q0 -127 51.5 -178.5t145.5 -51.5 q72 0 172 57l57 33v443h-131q-131 0 -213 -71.5t-82 -231.5z" />
<glyph unicode="h" horiz-adv-x="1277" d="M156 0v1442h295v-516l49 32q84 55 141 73t137 18q164 0 254 -95.5t90 -281.5v-672h-295v623q0 102 -35.5 145t-111.5 43q-63 0 -188 -74l-41 -24v-713h-295z" />
<glyph unicode="i" horiz-adv-x="622" d="M41 803v229h426v-1032h-295v803h-131zM172 1212v230h295v-230h-295z" />
<glyph unicode="j" horiz-adv-x="622" d="M-90 -164h106q156 0 156 164v803h-131v229h426v-1016q0 -201 -108.5 -305t-301.5 -104h-147v229zM172 1212v230h295v-230h-295z" />
<glyph unicode="k" horiz-adv-x="1122" d="M156 0v1442h295v-768l344 358h327v-24l-407 -394l407 -589v-25h-319l-289 420l-63 -62v-358h-295z" />
<glyph unicode="l" horiz-adv-x="606" d="M25 1212v230h426v-1442h-295v1212h-131z" />
<glyph unicode="m" horiz-adv-x="1933" d="M156 0v1032h295v-106l49 32q84 55 138 73t132 18q213 0 293 -140h18l58 33q184 106 286 107q164 0 258.5 -95.5t94.5 -281.5v-672h-295v623q0 111 -38 149.5t-118 38.5q-53 0 -172 -74l-41 -24v-713h-295v623q0 102 -35.5 145t-111.5 43q-27 0 -57.5 -10t-51 -21.5 t-71.5 -42.5l-41 -24v-713h-295z" />
<glyph unicode="n" horiz-adv-x="1286" d="M156 0v1032h295v-106l49 32q84 55 141 73t137 18q164 0 254 -95.5t90 -281.5v-672h-295v623q0 102 -35.5 145t-111.5 43q-63 0 -188 -74l-41 -24v-713h-295z" />
<glyph unicode="o" horiz-adv-x="1228" d="M82 516q0 264 148.5 398.5t384 134.5t384 -134.5t148.5 -398.5q0 -258 -149.5 -395t-383 -137t-383 137t-149.5 395zM385 516q0 -137 64.5 -216t165 -79t165 79t64.5 216q0 147 -62.5 221t-167 74t-167 -74t-62.5 -221z" />
<glyph unicode="p" horiz-adv-x="1261" d="M156 -393v1425h295v-98l49 33q121 82 254 82q188 0 307 -125t119 -367q0 -258 -175.5 -407.5t-422.5 -149.5h-131v-393h-295zM451 238h131q123 0 209 70.5t86 232.5q0 145 -51.5 203.5t-145.5 58.5q-86 0 -172 -49l-57 -33v-483z" />
<glyph unicode="q" horiz-adv-x="1261" d="M82 483q0 262 174 405.5t424 143.5h426v-1425h-295v491l-49 -32q-123 -82 -254 -82q-186 0 -306 128.5t-120 370.5zM385 492q0 -145 51 -204t146 -59q86 0 172 50l57 32v484h-131q-123 0 -209 -70.5t-86 -232.5z" />
<glyph unicode="r" horiz-adv-x="811" d="M156 0v1032h295v-114q59 43 91.5 65.5t82 44t88.5 21.5q55 0 98 -17v-246h-131q-100 0 -229 -81v-705h-295z" />
<glyph unicode="s" horiz-adv-x="1048" d="M98 737q0 90 42 154.5t113 97.5t141.5 46.5t146.5 13.5q201 0 352 -82v-205h-49q-133 57 -287 57q-164 0 -164 -74q0 -63 90 -81l164 -33q150 -31 226.5 -95.5t76.5 -216.5q0 -164 -125 -249.5t-350 -85.5q-231 0 -369 82v204h50q154 -57 311 -57q100 0 144 20.5t44 69.5 q0 41 -23.5 58.5t-82.5 31.5l-172 41q-279 65 -279 303z" />
<glyph unicode="t" horiz-adv-x="835" d="M41 803v229h131v213h295v-213h278v-229h-278v-426q0 -88 25.5 -118t89.5 -30q70 0 155 58h49v-213l-41 -25q-31 -18 -98 -41.5t-131 -23.5q-70 0 -124 13t-107.5 47t-83 106.5t-29.5 177.5v475h-131z" />
<glyph unicode="u" horiz-adv-x="1277" d="M156 360v672h295v-622q0 -102 35.5 -145.5t111.5 -43.5q63 0 188 74l41 24v713h295v-1032h-295v106l-49 -32q-84 -55 -141 -72.5t-137 -17.5q-164 0 -254 95t-90 281z" />
<glyph unicode="v" horiz-adv-x="1146" d="M49 1008v24h311l230 -770l229 770h279v-24l-344 -1008h-361z" />
<glyph unicode="w" horiz-adv-x="1720" d="M49 1008v24h311l172 -770l197 770h262l197 -770l172 770h311v-24l-278 -1008h-369l-164 655l-164 -655h-368z" />
<glyph unicode="x" horiz-adv-x="1105" d="M41 0v25l346 481l-346 502v24h319l205 -297l205 297h279v-24l-342 -478l350 -505v-25h-320l-211 303l-207 -303h-278z" />
<glyph unicode="y" horiz-adv-x="1277" d="M156 418v614h295v-565q0 -102 35.5 -145t111.5 -43q63 0 188 73l41 25v655h295v-950q0 -219 -153.5 -347t-403.5 -128q-96 0 -211.5 25.5t-165.5 56.5v180h66q143 -41 295 -41q125 0 201.5 62.5t76.5 191.5v82l-49 -33q-84 -55 -141 -72.5t-137 -17.5q-164 0 -254 95.5 t-90 281.5z" />
<glyph unicode="z" horiz-adv-x="950" d="M49 0v131l467 672h-450v229h835v-131l-475 -672h475v-229h-852z" />
<glyph unicode="{" horiz-adv-x="933" d="M66 524v197q158 8 210 64.5t52 164.5v164q0 164 87 246t240 82h213v-230h-90q-156 0 -155 -188v-106q0 -119 -67 -194t-179 -101q113 -27 179.5 -102t66.5 -193v-123q0 -129 32.5 -183.5t122.5 -54.5h90v-229h-213q-158 0 -242.5 75.5t-84.5 252.5v229q0 111 -52 167 t-210 62z" />
<glyph unicode="|" horiz-adv-x="819" d="M262 -262v1704h295v-1704h-295z" />
<glyph unicode="}" horiz-adv-x="933" d="M66 -33h90q90 0 122.5 54.5t32.5 183.5v123q0 119 66.5 193.5t179.5 101.5q-113 27 -179.5 101.5t-66.5 193.5v106q0 188 -155 188h-90v230h213q154 0 240.5 -82t86.5 -246v-164q0 -109 52.5 -165t209.5 -64v-197q-158 -6 -210 -62t-52 -167v-229q0 -176 -85 -252 t-242 -76h-213v229z" />
<glyph unicode="~" d="M172 475v205q35 61 100.5 104t145.5 43q78 0 223 -61t195 -61q143 0 221 122h16v-204q-35 -61 -100.5 -104.5t-145.5 -43.5q-78 0 -223 61.5t-194 61.5q-143 0 -222 -123h-16z" />
<glyph unicode="&#xa1;" horiz-adv-x="638" d="M164 0l33 983h245l33 -983h-311zM164 1130v312h311v-312h-311z" />
<glyph unicode="&#xa2;" d="M66 737q0 307 171 490.5t435 220.5v207h205v-201q102 -8 185 -34.5t118 -59.5v-230h-50q-135 74 -327 74q-170 0 -294 -129t-124 -346q0 -256 119 -373.5t299 -117.5q223 0 327 90h50v-222q-104 -94 -303 -116v-252h-205v252q-285 29 -445.5 226t-160.5 521z" />
<glyph unicode="&#xa3;" d="M115 0v254h164v344h-164v254h164v106q0 231 150.5 365.5t373.5 134.5t327 -82v-229h-32q-115 57 -279 57q-98 0 -163.5 -65.5t-65.5 -188.5v-98h344v-254h-344v-344h540v-254h-1015z" />
<glyph unicode="&#xa4;" horiz-adv-x="917" d="M53 782l103 103q-57 90 -58 213q0 127 56 209l-101 102l94 92l101 -100q90 57 211 57q127 0 215 -55l92 92l94 -92l-92 -92q59 -92 59 -213q0 -123 -61 -217l94 -93l-94 -92l-92 92q-90 -59 -215 -59q-121 0 -211 62l-101 -101zM238 1098q0 -117 61 -185.5t160 -68.5 q102 0 165.5 67.5t63.5 186.5t-63.5 182t-166 63t-161.5 -63t-59 -182z" />
<glyph unicode="&#xa5;" d="M41 1411v31h311l287 -516l295 516h303v-31l-467 -756v-8h320v-180h-320v-164h320v-180h-320v-123h-311v123h-312v180h312v164h-312v180h312v8z" />
<glyph unicode="&#xa6;" horiz-adv-x="819" d="M262 -262v655h295v-655h-295zM262 786v656h295v-656h-295z" />
<glyph unicode="&#xa7;" d="M82 506q0 119 90 182h205q-16 -57 -17 -100q0 -49 25 -87t98 -67l222 -90q303 -125 303 -375q0 -170 -139.5 -266t-360.5 -96q-254 0 -385 98v229h33q135 -74 368 -73q172 0 172 106q0 88 -147 148l-221 90q-127 53 -186.5 122.5t-59.5 178.5zM238 1096q0 170 139 266 t360 96q254 0 385 -98v-230h-32q-135 74 -369 74q-172 0 -172 -106q0 -88 147 -148l222 -90q127 -53 186 -122.5t59 -178.5q0 -119 -90 -182h-205q16 57 17 98q0 49 -24.5 87t-98.5 69l-221 90q-303 125 -303 375z" />
<glyph unicode="&#xa8;" horiz-adv-x="770" d="M0 1212v232h262v-232h-262zM508 1212v232h262v-232h-262z" />
<glyph unicode="&#xa9;" horiz-adv-x="1769" d="M82 729q0 338 226.5 542t576.5 204t576.5 -204t226.5 -542t-226.5 -541.5t-576.5 -203.5t-576.5 203.5t-226.5 541.5zM213 729q0 -285 183.5 -458t488.5 -173t488 173t183 458t-183 458t-488 173t-488.5 -173t-183.5 -458zM434 729q0 199 142.5 312.5t373.5 113.5 q147 0 262 -65v-222h-57q-115 57 -205 58q-102 0 -165.5 -51.5t-63.5 -145.5q0 -188 213 -188q125 0 221 57h57v-205q-45 -33 -125.5 -57.5t-152.5 -24.5q-246 0 -373 107.5t-127 310.5z" />
<glyph unicode="&#xaa;" horiz-adv-x="958" d="M49 311v213h860v-213h-860zM66 877q0 254 368 253h148v17q0 98 -140 98q-106 0 -229 -41h-66v172q164 82 336 82q168 0 264.5 -69.5t96.5 -217.5v-540h-262v59l-17 -10q-109 -66 -213 -66q-286 1 -286 263zM328 893q0 -82 82 -82q66 0 122 25l50 20v119h-123 q-131 0 -131 -82z" />
<glyph unicode="&#xab;" horiz-adv-x="1146" d="M66 508v197l475 327h16v-213l-319 -213l319 -213v-213h-16zM557 508v197l475 327h17v-213l-320 -213l320 -213v-213h-17z" />
<glyph unicode="&#xac;" d="M172 598v229h901v-565h-229v336h-672z" />
<glyph unicode="&#xad;" horiz-adv-x="851" d="M131 598v229h590v-229h-590z" />
<glyph unicode="&#xae;" horiz-adv-x="1769" d="M82 729q0 338 226.5 542t576.5 204t576.5 -204t226.5 -542t-226.5 -541.5t-576.5 -203.5t-576.5 203.5t-226.5 541.5zM213 729q0 -285 183.5 -458t488.5 -173t488 173t183 458t-183 458t-488 173t-488.5 -173t-183.5 -458zM500 328v811h467q150 0 234.5 -75t84.5 -196 q0 -164 -139 -245l156 -263v-32h-279l-115 213h-131v-213h-278zM778 737h156q74 29 74 107q0 90 -115 90h-115v-197z" />
<glyph unicode="&#xaf;" horiz-adv-x="704" d="M0 1229v180h705v-180h-705z" />
<glyph unicode="&#x2c9;" horiz-adv-x="704" d="M0 1229v180h705v-180h-705z" />
<glyph unicode="&#xb0;" horiz-adv-x="933" d="M49 1040.5q0 198.5 115 308t303 109.5t303 -109.5t115 -308t-115 -312.5t-303 -114t-303 114t-115 312.5zM328 1040.5q0 -106.5 34.5 -151.5t104.5 -45t104.5 45t34.5 151.5t-33.5 147.5t-105.5 41t-105.5 -41t-33.5 -147.5z" />
<glyph unicode="&#xb1;" d="M172 0h901v-229h-901v229zM172 598v229h336v336h229v-336h336v-229h-336v-336h-229v336h-336z" />
<glyph unicode="&#xb2;" horiz-adv-x="933" d="M82 631v114l180 140q162 127 204 173t42 105q0 41 -23.5 61.5t-91.5 20.5q-90 0 -221 -65h-41v204q133 74 287 74q385 0 385 -262q0 -96 -50.5 -161.5t-162.5 -149.5l-66 -49h320v-205h-762z" />
<glyph unicode="&#xb3;" horiz-adv-x="933" d="M82 680v197h49q98 -49 287 -50q98 0 135 20.5t37 61.5q0 57 -82 58h-221v123l213 163h-410v189h737v-123l-286 -197h73q270 0 271 -221q0 -129 -129 -208t-338 -79q-217 0 -336 66z" />
<glyph unicode="&#xb4;" horiz-adv-x="458" d="M133 1163v41l195 287h262v-41l-295 -287h-162z" />
<glyph unicode="&#xb5;" horiz-adv-x="1277" d="M156 -393v1425h295v-643q2 -92 37.5 -130t109.5 -38q63 0 188 74l41 24v713h295v-1032h-295v106l-49 -32q-84 -55 -141 -72.5t-137 -17.5q-33 0 -49 2v-379h-295z" />
<glyph unicode="&#x3bc;" horiz-adv-x="1277" d="M156 -393v1425h295v-643q2 -92 37.5 -130t109.5 -38q63 0 188 74l41 24v713h295v-1032h-295v106l-49 -32q-84 -55 -141 -72.5t-137 -17.5q-33 0 -49 2v-379h-295z" />
<glyph unicode="&#xb6;" horiz-adv-x="1769" d="M66 852q0 283 165.5 436.5t423.5 153.5h443v-1835h-312v655h-131q-256 0 -422.5 153.5t-166.5 436.5zM1278 -393v1835h311v-1835h-311z" />
<glyph unicode="&#xb7;" horiz-adv-x="638" d="M164 524v312h311v-312h-311z" />
<glyph unicode="&#x2219;" horiz-adv-x="638" d="M164 524v312h311v-312h-311z" />
<glyph unicode="&#xb8;" horiz-adv-x="458" d="M16 -270h50q66 -33 122 -33q106 0 107 65q0 57 -98 58h-74v188h123v-90h24q197 0 197 -156q0 -92 -70.5 -140t-199.5 -48q-98 0 -181 49v107z" />
<glyph unicode="&#xb9;" horiz-adv-x="933" d="M131 1163v213l336 82h172v-827h-287v573l-188 -41h-33z" />
<glyph unicode="&#xba;" horiz-adv-x="958" d="M49 311v213h860v-213h-860zM49 1032q0 211 120 318.5t314.5 107.5t310 -106.5t115.5 -319.5q0 -207 -116.5 -312.5t-309.5 -105.5q-195 0 -314.5 105.5t-119.5 312.5zM319 1032q0 -92 41 -148.5t123 -56.5q156 0 156 205t-156 205q-164 0 -164 -205z" />
<glyph unicode="&#xbb;" horiz-adv-x="1146" d="M98 180v213l320 213l-320 213v213h17l475 -327v-197l-475 -328h-17zM590 180v213l319 213l-319 213v213h16l475 -327v-197l-475 -328h-16z" />
<glyph unicode="&#xbc;" horiz-adv-x="1933" d="M131 1163v213l336 82h172v-827h-287v573l-188 -41h-33zM532 0v25l680 1417h189v-25l-680 -1417h-189zM1057 147v205l467 475h245v-483h123v-197h-123v-147h-253v147h-459zM1278 344h238v238z" />
<glyph unicode="&#xbd;" horiz-adv-x="1933" d="M131 1163v213l336 82h172v-827h-287v573l-188 -41h-33zM532 0v25l680 1417h189v-25l-680 -1417h-189zM1106 0v115l180 139q162 127 204 173t42 105q0 82 -131 82q-90 0 -238 -73h-41v204q59 33 146.5 57.5t156.5 24.5q190 0 296 -65.5t106 -196.5q0 -96 -50.5 -161.5 t-162.5 -149.5l-66 -49h320v-205h-762z" />
<glyph unicode="&#xbe;" horiz-adv-x="1933" d="M66 680v197h49q98 -49 286 -50q98 0 135 20.5t37 61.5q0 57 -81 58h-222v123l213 163h-409v189h737v-123l-287 -197h74q270 0 270 -221q0 -129 -129 -208t-338 -79q-216 0 -335 66zM532 0v25l680 1417h189v-25l-680 -1417h-189zM1057 147v205l467 475h245v-483h123v-197 h-123v-147h-253v147h-459zM1278 344h238v238z" />
<glyph unicode="&#xbf;" horiz-adv-x="1064" d="M82 360q0 139 67.5 225.5t194.5 168.5l115 73v123h311v-65q0 -100 -90 -172l-90 -74q-92 -74 -136 -131t-44 -115q0 -88 56 -121.5t173 -33.5q164 0 295 65h49v-229q-168 -90 -377 -90q-246 0 -385 95t-139 281zM459 1130v312h311v-312h-311z" />
<glyph unicode="&#xc0;" horiz-adv-x="1417" d="M49 0v33l492 1409h360l467 -1409v-33h-311l-84 262h-545l-84 -262h-295zM395 1827v41h267l194 -287v-41h-164zM508 508h387l-190 606z" />
<glyph unicode="&#xc1;" horiz-adv-x="1417" d="M49 0v33l492 1409h360l467 -1409v-33h-311l-84 262h-545l-84 -262h-295zM508 508h387l-190 606zM561 1540v41l195 287h262v-41l-295 -287h-162z" />
<glyph unicode="&#xc2;" horiz-adv-x="1417" d="M49 0v33l492 1409h360l467 -1409v-33h-311l-84 262h-545l-84 -262h-295zM365 1540v49l213 279h262l213 -279v-49h-164l-178 205l-183 -205h-163zM508 508h387l-190 606z" />
<glyph unicode="&#xc3;" horiz-adv-x="1417" d="M49 0v33l492 1409h360l467 -1409v-33h-311l-84 262h-545l-84 -262h-295zM315 1559v178q39 51 104.5 87t125.5 36q88 0 177 -61.5t150 -61.5q104 0 197 123h33v-181q-37 -51 -103.5 -85.5t-126.5 -34.5q-84 0 -175 60t-152 60q-53 0 -107.5 -37.5t-89.5 -82.5h-33z M508 508h387l-190 606z" />
<glyph unicode="&#xc4;" horiz-adv-x="1417" d="M49 0v33l492 1409h360l467 -1409v-33h-311l-84 262h-545l-84 -262h-295zM324 1589v232h262v-232h-262zM508 508h387l-190 606zM831 1589v232h263v-232h-263z" />
<glyph unicode="&#xc5;" horiz-adv-x="1417" d="M49 0v33l492 1409h360l467 -1409v-33h-311l-84 262h-545l-84 -262h-295zM471 1704q0 94 60.5 153.5t177 59.5t177 -59.5t60.5 -153.5q0 -92 -60.5 -152.5t-177 -60.5t-177 60.5t-60.5 152.5zM508 508h387l-190 606zM586 1704q0 -51 31.5 -83t91 -32t91 32t31.5 83 t-31.5 84t-91 33t-91 -33t-31.5 -84z" />
<glyph unicode="&#xc6;" horiz-adv-x="1900" d="M0 0v33l647 1409h1139v-254h-606v-311h524v-254h-524v-369h622v-254h-934v303h-434l-131 -303h-303zM541 549h327v639h-49z" />
<glyph unicode="&#xc7;" horiz-adv-x="1294" d="M82 737q0 176 60.5 316.5t164 226.5t234.5 132t278 46q123 0 230.5 -29.5t146.5 -68.5v-230h-49q-135 74 -328 74q-170 0 -294 -129t-124 -346q0 -256 119 -373.5t299 -117.5q223 0 328 90h49v-222q-61 -55 -172 -88.5t-238 -33.5q-29 0 -43 2v-68h25q197 0 197 -156 q0 -92 -71 -140t-200 -48q-98 0 -180 49v107h49q66 -33 123 -33q106 0 107 65q0 57 -99 58h-73v180q-254 47 -396.5 240.5t-142.5 496.5z" />
<glyph unicode="&#xc8;" horiz-adv-x="1212" d="M180 0v1442h918v-254h-606v-311h524v-254h-524v-369h622v-254h-934zM334 1827v41h266l195 -287v-41h-164z" />
<glyph unicode="&#xc9;" horiz-adv-x="1212" d="M180 0v1442h918v-254h-606v-311h524v-254h-524v-369h622v-254h-934zM479 1540v41l195 287h262v-41l-295 -287h-162z" />
<glyph unicode="&#xca;" horiz-adv-x="1212" d="M180 0v1442h918v-254h-606v-311h524v-254h-524v-369h622v-254h-934zM303 1540v49l213 279h262l213 -279v-49h-164l-178 205l-182 -205h-164z" />
<glyph unicode="&#xcb;" horiz-adv-x="1212" d="M180 0v1442h918v-254h-606v-311h524v-254h-524v-369h622v-254h-934zM242 1589v232h262v-232h-262zM750 1589v232h262v-232h-262z" />
<glyph unicode="&#xcc;" horiz-adv-x="671" d="M29 1827v41h266l194 -287v-41h-163zM180 0v1442h312v-1442h-312z" />
<glyph unicode="&#xcd;" horiz-adv-x="671" d="M172 1540v41l195 287h262v-41l-295 -287h-162zM180 0v1442h312v-1442h-312z" />
<glyph unicode="&#xce;" horiz-adv-x="671" d="M-8 1540v49l213 279h262l213 -279v-49h-164l-178 205l-182 -205h-164zM180 0v1442h312v-1442h-312z" />
<glyph unicode="&#xcf;" horiz-adv-x="671" d="M-49 1589v232h262v-232h-262zM180 0v1442h312v-1442h-312zM459 1589v232h262v-232h-262z" />
<glyph unicode="&#xd0;" horiz-adv-x="1499" d="M66 643v213h114v586h451q375 0 580.5 -175t205.5 -513t-186.5 -546t-550.5 -208h-500v643h-114zM492 254h131q246 0 360.5 121t114.5 379q0 227 -126 330.5t-399 103.5h-81v-332h229v-213h-229v-389z" />
<glyph unicode="&#xd1;" horiz-adv-x="1523" d="M180 0v1442h312l573 -934v934h311v-1442h-311l-573 932v-932h-312zM369 1559v178q39 51 104.5 87t124.5 36q88 0 177 -61.5t151 -61.5q104 0 196 123h33v-181q-37 -51 -103.5 -85.5t-125.5 -34.5q-84 0 -175.5 60t-152.5 60q-53 0 -107.5 -37.5t-89.5 -82.5h-32z" />
<glyph unicode="&#xd2;" horiz-adv-x="1507" d="M82 721q0 354 175 545.5t497 191.5q330 0 500.5 -189.5t170.5 -547.5q0 -354 -175 -545.5t-496 -191.5q-330 0 -501 189.5t-171 547.5zM401 721q0 -483 361 -483q344 0 344 483q0 242 -91 362.5t-261 120.5q-353 0 -353 -483zM494 1827v41h266l194 -287v-41h-163z" />
<glyph unicode="&#xd3;" horiz-adv-x="1507" d="M82 721q0 354 175 545.5t497 191.5q330 0 500.5 -189.5t170.5 -547.5q0 -354 -175 -545.5t-496 -191.5q-330 0 -501 189.5t-171 547.5zM401 721q0 -483 361 -483q344 0 344 483q0 242 -91 362.5t-261 120.5q-353 0 -353 -483zM553 1540v41l195 287h262v-41l-295 -287 h-162z" />
<glyph unicode="&#xd4;" horiz-adv-x="1507" d="M82 721q0 354 175 545.5t497 191.5q330 0 500.5 -189.5t170.5 -547.5q0 -354 -175 -545.5t-496 -191.5q-330 0 -501 189.5t-171 547.5zM401 721q0 -483 361 -483q344 0 344 483q0 242 -91 362.5t-261 120.5q-353 0 -353 -483zM410 1540v49l213 279h262l213 -279v-49h-164 l-178 205l-183 -205h-163z" />
<glyph unicode="&#xd5;" horiz-adv-x="1507" d="M82 721q0 354 175 545.5t497 191.5q330 0 500.5 -189.5t170.5 -547.5q0 -354 -175 -545.5t-496 -191.5q-330 0 -501 189.5t-171 547.5zM360 1559v178q39 51 104.5 87t125.5 36q88 0 177 -61.5t151 -61.5q104 0 196 123h33v-181q-37 -51 -103.5 -85.5t-125.5 -34.5 q-84 0 -175.5 60t-152.5 60q-53 0 -107.5 -37.5t-89.5 -82.5h-33zM401 721q0 -483 361 -483q344 0 344 483q0 242 -91 362.5t-261 120.5q-353 0 -353 -483z" />
<glyph unicode="&#xd6;" horiz-adv-x="1507" d="M82 721q0 354 175 545.5t497 191.5q330 0 500.5 -189.5t170.5 -547.5q0 -354 -175 -545.5t-496 -191.5q-330 0 -501 189.5t-171 547.5zM369 1589v232h262v-232h-262zM401 721q0 -483 361 -483q344 0 344 483q0 242 -91 362.5t-261 120.5q-353 0 -353 -483zM877 1589v232 h262v-232h-262z" />
<glyph unicode="&#xd7;" d="M223 475l238 238l-238 237l162 162l238 -238l237 238l162 -162l-238 -237l238 -238l-162 -162l-237 238l-238 -238z" />
<glyph unicode="&#xd8;" horiz-adv-x="1507" d="M82 0v41l143 164q-143 190 -143 516q0 354 175 545.5t497 191.5q279 0 448 -139l109 123h114v-41l-145 -166q145 -186 145 -514q0 -354 -175 -545.5t-496 -191.5q-285 0 -449 139l-108 -123h-115zM401 721q0 -166 41 -268l564 641q-92 111 -252 110q-353 0 -353 -483z M502 348q92 -111 260 -110q344 0 344 483q0 158 -41 268z" />
<glyph unicode="&#xd9;" horiz-adv-x="1507" d="M180 541v901h312v-869q0 -174 66.5 -254.5t211.5 -80.5t212 80.5t67 254.5v869h311v-901q0 -274 -163 -415.5t-443 -141.5q-266 0 -420 141.5t-154 415.5zM485 1827v41h267l194 -287v-41h-164z" />
<glyph unicode="&#xda;" horiz-adv-x="1507" d="M180 541v901h312v-869q0 -174 66.5 -254.5t211.5 -80.5t212 80.5t67 254.5v869h311v-901q0 -274 -163 -415.5t-443 -141.5q-266 0 -420 141.5t-154 415.5zM629 1540v41l194 287h262v-41l-294 -287h-162z" />
<glyph unicode="&#xdb;" horiz-adv-x="1507" d="M180 541v901h312v-869q0 -174 66.5 -254.5t211.5 -80.5t212 80.5t67 254.5v869h311v-901q0 -274 -163 -415.5t-443 -141.5q-266 0 -420 141.5t-154 415.5zM430 1540v49l213 279h262l213 -279v-49h-164l-178 205l-182 -205h-164z" />
<glyph unicode="&#xdc;" horiz-adv-x="1507" d="M180 541v901h312v-869q0 -174 66.5 -254.5t211.5 -80.5t212 80.5t67 254.5v869h311v-901q0 -274 -163 -415.5t-443 -141.5q-266 0 -420 141.5t-154 415.5zM369 1589v232h262v-232h-262zM877 1589v232h262v-232h-262z" />
<glyph unicode="&#xdd;" horiz-adv-x="1286" d="M49 1409v33h311l279 -582l303 582h295v-33l-459 -831v-578h-311v573zM496 1540v41l194 287h262v-41l-295 -287h-161z" />
<glyph unicode="&#xde;" horiz-adv-x="1343" d="M180 0v1442h312v-164h213q258 0 415.5 -126t157.5 -374q0 -272 -158.5 -418.5t-414.5 -146.5h-213v-213h-312zM492 467h180q295 0 295 311q0 246 -295 246h-180v-557z" />
<glyph unicode="&#xdf;" horiz-adv-x="1466" d="M41 803v229h131v8q0 176 140.5 297t367.5 121q236 0 363.5 -71.5t127.5 -206.5q0 -35 -7 -64t-13 -48t-26.5 -45t-30 -36t-39 -38.5t-39.5 -39.5l-17 -16l-16 -16q-4 -4 -13 -14.5t-13 -16.5l-8 -17q-5 -10 -6 -20t-1 -23q0 -57 90 -90l66 -24q131 -51 200.5 -124 t69.5 -204q0 -360 -434 -360q-182 0 -320 82v204h50q154 -57 245 -57q80 0 122 34t42 81q0 76 -106 114l-66 25q-47 18 -83 36.5t-80 52.5t-67.5 86t-23.5 120q0 106 115 221l23 24l25 24q7 7 20.5 21.5t19.5 22.5t13 20.5t10.5 22.5t3.5 21q0 90 -164 90 q-115 0 -180.5 -60.5t-65.5 -185.5v-983h-295v803h-131z" />
<glyph unicode="&#xe0;" horiz-adv-x="1220" d="M98 295q0 166 127 255t332 89h205v16q0 74 -44 115t-153 41q-154 0 -311 -57h-49v196q182 98 442 99q188 0 299 -88.5t111 -255.5v-705h-295v90l-49 -33q-111 -74 -262 -73q-156 0 -254.5 78.5t-98.5 232.5zM317 1450v41h267l194 -287v-41h-164zM393 328q0 -115 123 -115 q117 0 189 41l57 33v172h-172q-90 0 -143.5 -32.5t-53.5 -98.5z" />
<glyph unicode="&#xe1;" horiz-adv-x="1220" d="M98 295q0 166 127 255t332 89h205v16q0 74 -44 115t-153 41q-154 0 -311 -57h-49v196q182 98 442 99q188 0 299 -88.5t111 -255.5v-705h-295v90l-49 -33q-111 -74 -262 -73q-156 0 -254.5 78.5t-98.5 232.5zM393 328q0 -115 123 -115q117 0 189 41l57 33v172h-172 q-90 0 -143.5 -32.5t-53.5 -98.5zM442 1163v41l195 287h262v-41l-295 -287h-162z" />
<glyph unicode="&#xe2;" horiz-adv-x="1220" d="M98 295q0 166 127 255t332 89h205v16q0 74 -44 115t-153 41q-154 0 -311 -57h-49v196q182 98 442 99q188 0 299 -88.5t111 -255.5v-705h-295v90l-49 -33q-111 -74 -262 -73q-156 0 -254.5 78.5t-98.5 232.5zM266 1163v49l213 279h262l213 -279v-49h-163l-179 205 l-182 -205h-164zM393 328q0 -115 123 -115q117 0 189 41l57 33v172h-172q-90 0 -143.5 -32.5t-53.5 -98.5z" />
<glyph unicode="&#xe3;" horiz-adv-x="1220" d="M98 295q0 166 127 255t332 89h205v16q0 74 -44 115t-153 41q-154 0 -311 -57h-49v196q182 98 442 99q188 0 299 -88.5t111 -255.5v-705h-295v90l-49 -33q-111 -74 -262 -73q-156 0 -254.5 78.5t-98.5 232.5zM217 1182v178q39 51 104.5 87t124.5 36q88 0 177.5 -61.5 t150.5 -61.5q104 0 197 123h33v-180q-37 -51 -103.5 -86t-126.5 -35q-84 0 -175 60.5t-153 60.5q-53 0 -107 -38t-89 -83h-33zM393 328q0 -115 123 -115q117 0 189 41l57 33v172h-172q-90 0 -143.5 -32.5t-53.5 -98.5z" />
<glyph unicode="&#xe4;" horiz-adv-x="1220" d="M98 295q0 166 127 255t332 89h205v16q0 74 -44 115t-153 41q-154 0 -311 -57h-49v196q182 98 442 99q188 0 299 -88.5t111 -255.5v-705h-295v90l-49 -33q-111 -74 -262 -73q-156 0 -254.5 78.5t-98.5 232.5zM225 1212v232h262v-232h-262zM393 328q0 -115 123 -115 q117 0 189 41l57 33v172h-172q-90 0 -143.5 -32.5t-53.5 -98.5zM733 1212v232h262v-232h-262z" />
<glyph unicode="&#xe5;" horiz-adv-x="1220" d="M98 295q0 166 127 255t332 89h205v16q0 74 -44 115t-153 41q-154 0 -311 -57h-49v196q182 98 442 99q188 0 299 -88.5t111 -255.5v-705h-295v90l-49 -33q-111 -74 -262 -73q-156 0 -254.5 78.5t-98.5 232.5zM373 1327q0 94 60.5 153.5t177 59.5t177 -59.5t60.5 -153.5 q0 -92 -60.5 -152.5t-177 -60.5t-177 60.5t-60.5 152.5zM393 328q0 -115 123 -115q117 0 189 41l57 33v172h-172q-90 0 -143.5 -32.5t-53.5 -98.5zM487 1327q0 -51 32 -83t91.5 -32t91 32t31.5 83t-31.5 84t-91 33t-91.5 -33t-32 -84z" />
<glyph unicode="&#xe6;" horiz-adv-x="1810" d="M90 311q0 154 127 237t332 83h180v24q0 80 -43 118t-154 38q-137 0 -294 -57h-50v196q182 98 426 99q201 0 310 -97q133 96 321 97q205 0 324 -114t119 -296v-188h-660q31 -229 275 -230q162 0 294 74h50v-197q-143 -115 -377 -114q-254 0 -396 139h-14l-123 -66 q-141 -74 -270 -73q-170 0 -273.5 81.5t-103.5 245.5zM385 328q0 -115 131 -115q102 0 197 49l55 29q-29 74 -35 160h-151q-82 0 -139.5 -30t-57.5 -93zM1030 631h371v24q0 80 -48 122t-116 42q-170 0 -205 -172z" />
<glyph unicode="&#xe7;" horiz-adv-x="1032" d="M82 516q0 256 159.5 394.5t397.5 138.5q205 0 303 -99v-196h-49q-98 49 -254 49q-113 0 -183.5 -67.5t-70.5 -203.5q0 -303 254 -303q150 0 254 66h49v-189q-47 -53 -144.5 -87.5t-191.5 -34.5h-24v-66h24q197 0 197 -156q0 -92 -70.5 -140t-200.5 -48q-98 0 -180 49v107 h49q66 -33 123 -33q106 0 107 65q0 57 -99 58h-73v180q-174 37 -275.5 167t-101.5 349z" />
<glyph unicode="&#xe8;" horiz-adv-x="1163" d="M82 524q0 256 148.5 390.5t367.5 134.5q205 0 323.5 -114t118.5 -296v-197h-659q33 -221 274 -221q162 0 295 74h49v-197q-143 -115 -376 -114q-248 0 -394.5 139t-146.5 401zM289 1450v41h266l195 -287v-41h-164zM383 623h371v32q0 80 -48.5 122t-115.5 42 q-170 0 -205 -172z" />
<glyph unicode="&#xe9;" horiz-adv-x="1163" d="M82 524q0 256 148.5 390.5t367.5 134.5q205 0 323.5 -114t118.5 -296v-197h-659q33 -221 274 -221q162 0 295 74h49v-197q-143 -115 -376 -114q-248 0 -394.5 139t-146.5 401zM383 623h371v32q0 80 -48.5 122t-115.5 42q-170 0 -205 -172zM434 1163v41l195 287h262v-41 l-295 -287h-162z" />
<glyph unicode="&#xea;" horiz-adv-x="1163" d="M82 524q0 256 148.5 390.5t367.5 134.5q205 0 323.5 -114t118.5 -296v-197h-659q33 -221 274 -221q162 0 295 74h49v-197q-143 -115 -376 -114q-248 0 -394.5 139t-146.5 401zM238 1163v49l213 279h262l213 -279v-49h-164l-178 205l-183 -205h-163zM383 623h371v32 q0 80 -48.5 122t-115.5 42q-170 0 -205 -172z" />
<glyph unicode="&#xeb;" horiz-adv-x="1163" d="M82 524q0 256 148.5 390.5t367.5 134.5q205 0 323.5 -114t118.5 -296v-197h-659q33 -221 274 -221q162 0 295 74h49v-197q-143 -115 -376 -114q-248 0 -394.5 139t-146.5 401zM197 1212v232h262v-232h-262zM383 623h371v32q0 80 -48.5 122t-115.5 42q-170 0 -205 -172z M705 1212v232h262v-232h-262z" />
<glyph unicode="&#xec;" horiz-adv-x="622" d="M-23 1450v41h267l194 -287v-41h-164zM41 803v229h426v-1032h-295v803h-131z" />
<glyph unicode="&#xed;" horiz-adv-x="622" d="M41 803v229h426v-1032h-295v803h-131zM125 1163v41l194 287h263v-41l-295 -287h-162z" />
<glyph unicode="&#xee;" horiz-adv-x="622" d="M-94 1163v49l213 279h262l213 -279v-49h-164l-178 205l-182 -205h-164zM41 803v229h426v-1032h-295v803h-131z" />
<glyph unicode="&#xef;" horiz-adv-x="622" d="M-135 1212v232h262v-232h-262zM41 803v229h426v-1032h-295v803h-131zM373 1212v232h262v-232h-262z" />
<glyph unicode="&#xf0;" horiz-adv-x="1261" d="M82 483q0 262 174 405.5t424 143.5h131v98h-287v189h287v123h295v-123h106v-189h-106v-1130h-295v98l-49 -32q-123 -82 -254 -82q-186 0 -306 128.5t-120 370.5zM385 492q0 -270 197 -271q72 0 172 58l57 32v484h-131q-123 0 -209 -70.5t-86 -232.5z" />
<glyph unicode="&#xf1;" horiz-adv-x="1286" d="M156 0v1032h295v-106l49 32q84 55 141 73t137 18q164 0 254 -95.5t90 -281.5v-672h-295v623q0 102 -35.5 145t-111.5 43q-63 0 -188 -74l-41 -24v-713h-295zM250 1182v178q39 51 104.5 87t124.5 36q88 0 177 -61.5t151 -61.5q104 0 197 123h32v-180q-37 -51 -103.5 -86 t-125.5 -35q-84 0 -175 60.5t-153 60.5q-53 0 -107.5 -38t-88.5 -83h-33z" />
<glyph unicode="&#xf2;" horiz-adv-x="1228" d="M82 516q0 264 148.5 398.5t384 134.5t384 -134.5t148.5 -398.5q0 -258 -149.5 -395t-383 -137t-383 137t-149.5 395zM322 1450v41h266l194 -287v-41h-164zM385 516q0 -137 64.5 -216t165 -79t165 79t64.5 216q0 147 -62.5 221t-167 74t-167 -74t-62.5 -221z" />
<glyph unicode="&#xf3;" horiz-adv-x="1228" d="M82 516q0 264 148.5 398.5t384 134.5t384 -134.5t148.5 -398.5q0 -258 -149.5 -395t-383 -137t-383 137t-149.5 395zM385 516q0 -137 64.5 -216t165 -79t165 79t64.5 216q0 147 -62.5 221t-167 74t-167 -74t-62.5 -221zM446 1163v41l195 287h262v-41l-295 -287h-162z" />
<glyph unicode="&#xf4;" horiz-adv-x="1228" d="M82 516q0 264 148.5 398.5t384 134.5t384 -134.5t148.5 -398.5q0 -258 -149.5 -395t-383 -137t-383 137t-149.5 395zM270 1163v49l213 279h262l213 -279v-49h-163l-179 205l-182 -205h-164zM385 516q0 -137 64.5 -216t165 -79t165 79t64.5 216q0 147 -62.5 221t-167 74 t-167 -74t-62.5 -221z" />
<glyph unicode="&#xf5;" horiz-adv-x="1228" d="M82 516q0 264 148.5 398.5t384 134.5t384 -134.5t148.5 -398.5q0 -258 -149.5 -395t-383 -137t-383 137t-149.5 395zM221 1182v178q39 51 104.5 87t125.5 36q88 0 177 -61.5t150 -61.5q104 0 197 123h33v-180q-37 -51 -103.5 -86t-126.5 -35q-84 0 -175 60.5t-152 60.5 q-53 0 -107.5 -38t-89.5 -83h-33zM385 516q0 -137 64.5 -216t165 -79t165 79t64.5 216q0 147 -62.5 221t-167 74t-167 -74t-62.5 -221z" />
<glyph unicode="&#xf6;" horiz-adv-x="1228" d="M82 516q0 264 148.5 398.5t384 134.5t384 -134.5t148.5 -398.5q0 -258 -149.5 -395t-383 -137t-383 137t-149.5 395zM229 1212v232h263v-232h-263zM385 516q0 -137 64.5 -216t165 -79t165 79t64.5 216q0 147 -62.5 221t-167 74t-167 -74t-62.5 -221zM737 1212v232h262 v-232h-262z" />
<glyph unicode="&#xf7;" d="M172 598v229h901v-229h-901zM508 238v229h229v-229h-229zM508 958v230h229v-230h-229z" />
<glyph unicode="&#xf8;" horiz-adv-x="1228" d="M82 0v41l115 117q-115 137 -115 358q0 264 148.5 398.5t383.5 134.5q213 0 353 -109l90 92h90v-41l-113 -114q113 -139 113 -361q0 -258 -149.5 -395t-383.5 -137q-213 0 -352 108l-90 -92h-90zM385 516q0 -80 23 -143l366 370q-61 68 -160 68q-104 0 -166.5 -74 t-62.5 -221zM457 291q63 -70 157 -70q100 0 165 79t65 216q0 82 -23 146z" />
<glyph unicode="&#xf9;" horiz-adv-x="1277" d="M156 360v672h295v-622q0 -102 35.5 -145.5t111.5 -43.5q63 0 188 74l41 24v713h295v-1032h-295v106l-49 -32q-84 -55 -141 -72.5t-137 -17.5q-164 0 -254 95t-90 281zM326 1450v41h266l194 -287v-41h-163z" />
<glyph unicode="&#xfa;" horiz-adv-x="1277" d="M156 360v672h295v-622q0 -102 35.5 -145.5t111.5 -43.5q63 0 188 74l41 24v713h295v-1032h-295v106l-49 -32q-84 -55 -141 -72.5t-137 -17.5q-164 0 -254 95t-90 281zM492 1163v41l194 287h262v-41l-295 -287h-161z" />
<glyph unicode="&#xfb;" horiz-adv-x="1277" d="M156 360v672h295v-622q0 -102 35.5 -145.5t111.5 -43.5q63 0 188 74l41 24v713h295v-1032h-295v106l-49 -32q-84 -55 -141 -72.5t-137 -17.5q-164 0 -254 95t-90 281zM295 1163v49l213 279h262l213 -279v-49h-164l-178 205l-182 -205h-164z" />
<glyph unicode="&#xfc;" horiz-adv-x="1277" d="M156 360v672h295v-622q0 -102 35.5 -145.5t111.5 -43.5q63 0 188 74l41 24v713h295v-1032h-295v106l-49 -32q-84 -55 -141 -72.5t-137 -17.5q-164 0 -254 95t-90 281zM254 1212v232h262v-232h-262zM762 1212v232h262v-232h-262z" />
<glyph unicode="&#xfd;" horiz-adv-x="1277" d="M156 418v614h295v-565q0 -102 35.5 -145t111.5 -43q63 0 188 73l41 25v655h295v-950q0 -219 -153.5 -347t-403.5 -128q-96 0 -211.5 25.5t-165.5 56.5v180h66q143 -41 295 -41q125 0 201.5 62.5t76.5 191.5v82l-49 -33q-84 -55 -141 -72.5t-137 -17.5q-164 0 -254 95.5 t-90 281.5zM492 1163v41l194 287h262v-41l-295 -287h-161z" />
<glyph unicode="&#xfe;" horiz-adv-x="1261" d="M156 -393v1835h295v-508l49 33q121 82 254 82q188 0 307 -125t119 -367q0 -258 -175.5 -407.5t-422.5 -149.5h-131v-393h-295zM451 238h131q123 0 209 70.5t86 232.5q0 145 -51.5 203.5t-145.5 58.5q-86 0 -172 -49l-57 -33v-483z" />
<glyph unicode="&#xff;" horiz-adv-x="1277" d="M156 418v614h295v-565q0 -102 35.5 -145t111.5 -43q63 0 188 73l41 25v655h295v-950q0 -219 -153.5 -347t-403.5 -128q-96 0 -211.5 25.5t-165.5 56.5v180h66q143 -41 295 -41q125 0 201.5 62.5t76.5 191.5v82l-49 -33q-84 -55 -141 -72.5t-137 -17.5q-164 0 -254 95.5 t-90 281.5zM254 1212v232h262v-232h-262zM762 1212v232h262v-232h-262z" />
<glyph unicode="&#x152;" horiz-adv-x="1982" d="M82 721q0 346 186.5 533.5t485.5 187.5h1114v-254h-606v-311h524v-254h-524v-369h622v-254h-1130q-309 0 -490.5 186.5t-181.5 534.5zM401 721q0 -467 377 -467h172v934h-180q-369 0 -369 -467z" />
<glyph unicode="&#x153;" horiz-adv-x="1925" d="M82 516q0 264 148.5 398.5t383.5 134.5q240 0 381 -134q139 133 365 134q205 0 323.5 -114t118.5 -296v-197h-659q33 -221 274 -221q162 0 295 74h49v-197q-143 -115 -377 -114q-246 0 -389 133q-141 -133 -381 -133q-233 0 -382.5 137t-149.5 395zM385 516 q0 -137 64.5 -216t164.5 -79q98 0 162 75t68 206v28q-4 139 -66.5 210t-163.5 71q-104 0 -166.5 -74t-62.5 -221zM1145 623h371v32q0 80 -48.5 122t-115.5 42q-170 0 -205 -172z" />
<glyph unicode="&#x178;" horiz-adv-x="1286" d="M49 1409v33h311l279 -582l303 582h295v-33l-459 -831v-578h-311v573zM258 1589v232h262v-232h-262zM766 1589v232h262v-232h-262z" />
<glyph unicode="&#x2c6;" horiz-adv-x="786" d="M49 1163v49l213 279h262l213 -279v-49h-164l-178 205l-182 -205h-164z" />
<glyph unicode="&#x2dc;" horiz-adv-x="786" d="M0 1182v178q39 51 104.5 87t124.5 36q88 0 177.5 -61.5t150.5 -61.5q104 0 197 123h32v-180q-37 -51 -103.5 -86t-125.5 -35q-84 0 -175 60.5t-153 60.5q-53 0 -107 -38t-89 -83h-33z" />
<glyph unicode="&#x2000;" horiz-adv-x="958" />
<glyph unicode="&#x2001;" horiz-adv-x="1916" />
<glyph unicode="&#x2002;" horiz-adv-x="958" />
<glyph unicode="&#x2003;" horiz-adv-x="1916" />
<glyph unicode="&#x2004;" horiz-adv-x="638" />
<glyph unicode="&#x2005;" horiz-adv-x="479" />
<glyph unicode="&#x2006;" horiz-adv-x="319" />
<glyph unicode="&#x2007;" horiz-adv-x="319" />
<glyph unicode="&#x2008;" horiz-adv-x="239" />
<glyph unicode="&#x2009;" horiz-adv-x="382" />
<glyph unicode="&#x200a;" horiz-adv-x="106" />
<glyph unicode="&#x2010;" horiz-adv-x="851" d="M131 598v229h590v-229h-590z" />
<glyph unicode="&#x2011;" horiz-adv-x="851" d="M131 598v229h590v-229h-590z" />
<glyph unicode="&#x2012;" horiz-adv-x="851" d="M131 598v229h590v-229h-590z" />
<glyph unicode="&#x2013;" horiz-adv-x="1048" d="M82 598v229h885v-229h-885z" />
<glyph unicode="&#x2014;" horiz-adv-x="2097" d="M82 598v229h1933v-229h-1933z" />
<glyph unicode="&#x2018;" horiz-adv-x="638" d="M164 868v271q0 113 53 189.5t127 113.5h238v-17q-106 -63 -107 -245v-312h-311z" />
<glyph unicode="&#x2019;" horiz-adv-x="638" d="M57 868v17q106 63 107 245v312h311v-271q0 -113 -53 -189.5t-127 -113.5h-238z" />
<glyph unicode="&#x201a;" horiz-adv-x="638" d="M57 -246q106 63 107 246v311h311v-270q0 -113 -53 -189.5t-127 -113.5h-238v16z" />
<glyph unicode="&#x201c;" horiz-adv-x="1114" d="M164 868v271q0 113 53 189.5t127 113.5h238v-17q-106 -63 -107 -245v-312h-311zM639 868v271q0 113 53 189.5t127 113.5h238v-17q-106 -63 -107 -245v-312h-311z" />
<glyph unicode="&#x201d;" horiz-adv-x="1114" d="M57 868v17q106 63 107 245v312h311v-271q0 -113 -53 -189.5t-127 -113.5h-238zM532 868v17q106 63 107 245v312h311v-271q0 -113 -53 -189.5t-127 -113.5h-238z" />
<glyph unicode="&#x201e;" horiz-adv-x="1114" d="M57 -246q106 63 107 246v311h311v-270q0 -113 -53 -189.5t-127 -113.5h-238v16zM532 -246q106 63 107 246v311h311v-270q0 -113 -53 -189.5t-127 -113.5h-238v16z" />
<glyph unicode="&#x2022;" d="M197 557q0 176 124.5 301t301 125t301.5 -125t125 -301t-125 -301t-301.5 -125t-301 125t-124.5 301z" />
<glyph unicode="&#x2026;" horiz-adv-x="1916" d="M164 0v311h311v-311h-311zM803 0v311h311v-311h-311zM1442 0v311h311v-311h-311z" />
<glyph unicode="&#x202f;" horiz-adv-x="382" />
<glyph unicode="&#x2039;" horiz-adv-x="655" d="M66 508v197l475 327h16v-213l-319 -213l319 -213v-213h-16z" />
<glyph unicode="&#x203a;" horiz-adv-x="655" d="M66 180v213l319 213l-319 213v213h16l475 -327v-197l-475 -328h-16z" />
<glyph unicode="&#x205f;" horiz-adv-x="479" />
<glyph unicode="&#x20ac;" d="M82 459v180h164v147h-164v181h164v24q0 246 145.5 356.5t427.5 110.5q106 0 215 -30.5t146 -67.5v-230h-50q-135 74 -311 74q-133 0 -193.5 -52t-60.5 -161v-24h434v-181h-434v-147h434v-180h-434v-8q0 -106 72 -159.5t199 -53.5q207 0 311 90h49v-222 q-59 -53 -172 -87.5t-221 -34.5q-287 0 -422 109.5t-135 357.5v8h-164z" />
<glyph unicode="&#x2122;" horiz-adv-x="2097" d="M66 1221v237h802v-237h-262v-574h-278v574h-262zM950 647v811h271l237 -270l230 270h270v-811h-270v459l-164 -197h-131l-172 189v-451h-271z" />
<glyph unicode="&#xe000;" horiz-adv-x="1030" d="M0 1030h1030v-1030h-1030v1030z" />
<glyph unicode="&#xfb01;" horiz-adv-x="1277" d="M41 803v229h131v25q0 193 110.5 289t307.5 96h82v-230h-49q-156 0 -156 -155v-25h655v-1032h-295v803h-360v-803h-295v803h-131zM827 1212v230h295v-230h-295z" />
<glyph unicode="&#xfb02;" horiz-adv-x="1277" d="M41 803v229h131v25q0 193 114.5 289t327.5 96h508v-1442h-295v1212h-204q-156 0 -156 -155v-25h213v-229h-213v-803h-295v803h-131z" />
<glyph unicode="&#xfb03;" horiz-adv-x="1933" d="M1352 803v229h426v-1032h-295v803h-131zM1483 1212v230h295v-230h-295zM696 803v229h131v25q0 193 110.5 289t307.5 96h139v-230h-106q-156 0 -156 -139v-41h205v-229h-205v-803h-295v803h-131zM41 803v229h131v25q0 193 110.5 289t307.5 96h139v-230h-106 q-156 0 -156 -139v-41h205v-229h-205v-803h-295v803h-131z" />
<glyph unicode="&#xfb04;" horiz-adv-x="1916" d="M1336 1212v230h426v-1442h-295v1212h-131zM696 803v229h131v25q0 193 110.5 289t307.5 96h139v-230h-106q-156 0 -156 -139v-41h205v-229h-205v-803h-295v803h-131zM41 803v229h131v25q0 193 110.5 289t307.5 96h139v-230h-106q-156 0 -156 -139v-41h205v-229h-205v-803 h-295v803h-131z" />
</font>
</defs>
</svg>
