<?xml version="1.0" encoding="utf-8"?>
<!-- Generator: Adobe Illustrator 15.0.0, SVG Export Plug-In . SVG Version: 6.00 Build 0)  -->
<!DOCTYPE svg PUBLIC "-//W3C//DTD SVG 1.1//EN" "http://www.w3.org/Graphics/SVG/1.1/DTD/svg11.dtd">
<svg version="1.1" id="Layer_1" xmlns="http://www.w3.org/2000/svg" xmlns:xlink="http://www.w3.org/1999/xlink" x="0px" y="0px"
	 width="406.271px" height="132.904px" viewBox="38.864 10.098 406.271 132.904"
	 enable-background="new 38.864 10.098 406.271 132.904" xml:space="preserve">
<path fill="#A6A8AB" d="M111.946,31.866c1-2.017,1.578-4.277,1.578-6.674c0-8.322-6.771-15.094-15.096-15.094
	c-8.32,0-15.089,6.771-15.089,15.094c0,8.319,6.769,15.09,15.089,15.09c0.548,0,1.086-0.034,1.62-0.09
	c5.131,8.747,11.028,22.183,10.153,36.757c-0.89,14.816-6.203,27.553-10.729,35.918c-0.347-0.023-0.692-0.053-1.045-0.053
	c-8.32,0-15.088,6.77-15.088,15.092c0,8.324,6.768,15.096,15.088,15.096c8.323,0,15.096-6.771,15.096-15.096
	c0-2.606-0.665-5.059-1.834-7.202c5.402-9.739,11.856-24.86,12.938-42.889C125.761,58.999,118.253,42.331,111.946,31.866z
	 M98.429,30.359c-2.849,0-5.165-2.318-5.165-5.167c0-2.851,2.316-5.17,5.165-5.17c2.854,0,5.173,2.319,5.173,5.17
	C103.602,28.041,101.281,30.359,98.429,30.359z M98.429,133.078c-2.848,0-5.164-2.319-5.164-5.172c0-2.85,2.316-5.168,5.164-5.168
	c2.854,0,5.173,2.318,5.173,5.168C103.602,130.759,101.281,133.078,98.429,133.078z"/>
<path fill="#929497" d="M107.946,58.257c0.29,1.007,0.807,3.069,0.807,3.069s2.358-0.585,6.541-0.759
	c5.254-0.219,8.101,0.028,8.101,0.028s-0.68-3.154-1.083-4.682C119.772,46.305,105.915,51.213,107.946,58.257z"/>
<polygon fill="none" points="53.955,50.869 98.432,25.19 142.905,50.869 142.905,102.229 98.432,127.906 53.955,102.229 "/>
<path id="logo-color" fill="#F16A42" d="M142.905,35.78c-5.251,0-9.881,2.699-12.584,6.78c-11.188-0.145-27.623,1.447-43.894,9.583
	C69.364,60.676,58.633,76.15,52.764,87.195c-7.763,0.613-13.897,7.111-13.897,15.031c0,8.321,6.769,15.094,15.09,15.094
	c8.32,0,15.093-6.771,15.093-15.094c0-3.401-1.146-6.537-3.053-9.062c4.979-9.134,13.713-21.501,26.896-28.096
	c13.191-6.597,26.799-8.043,36.252-8.036c2.362,5.256,7.636,8.932,13.761,8.932c8.322,0,15.096-6.772,15.096-15.095
	C158,42.549,151.228,35.78,142.905,35.78z M53.955,107.395c-2.85,0-5.166-2.317-5.166-5.166c0-2.852,2.316-5.168,5.166-5.168
	c2.851,0,5.169,2.316,5.169,5.168C59.124,105.076,56.806,107.395,53.955,107.395z M142.905,56.04c-2.85,0-5.168-2.32-5.168-5.171
	c0-2.85,2.318-5.165,5.168-5.165c2.852,0,5.171,2.315,5.171,5.165C148.075,53.719,145.756,56.04,142.905,56.04z"/>
<g>
	<path class="colorable-base" fill="#D65E3B" d="M65.375,72.086c-1.726,0-3.531,0.894-5.113,3.071
		c-0.709,0.975-2.034,2.907-2.034,2.907s1.374,3.045,3.695,6.532c2.972,4.455,5.319,6.35,5.319,6.35s2.287-3.781,3.646-5.747
		C74.723,79.65,70.392,72.085,65.375,72.086"/>
</g>
<path fill="#58595B" d="M142.905,87.136c-6.229,0-11.59,3.796-13.892,9.196c-10.397,0.252-25.459-1.129-37.753-9.248
	c-12.312-8.129-20.37-19.195-25.09-27.387c1.802-2.485,2.877-5.53,2.877-8.828c0-8.319-6.771-15.089-15.093-15.089
	c-8.322,0-15.091,6.77-15.091,15.089c0,8.017,6.287,14.575,14.186,15.047c5.471,9.764,15.067,23.205,30.248,33.229
	c14.418,9.521,31.176,11.7,43.493,11.7c1.282,0,2.515-0.024,3.693-0.063c2.726,3.943,7.273,6.539,12.42,6.539
	c8.322,0,15.096-6.771,15.096-15.092C157.999,93.906,151.228,87.136,142.905,87.136z M53.955,56.04c-2.85,0-5.166-2.32-5.166-5.171
	c0-2.85,2.316-5.165,5.166-5.165c2.851,0,5.169,2.315,5.169,5.165C59.124,53.719,56.806,56.04,53.955,56.04z M142.905,107.395
	c-2.85,0-5.168-2.317-5.168-5.166c0-2.852,2.318-5.168,5.168-5.168c2.852,0,5.171,2.316,5.171,5.168
	C148.075,105.076,145.756,107.395,142.905,107.395z"/>
<path fill="#404041" d="M122.022,96.232c0,0-2.079-0.129-3.146-0.228c-8.836-0.808-14.944,12.677-5.128,13.99
	c1.979,0.266,5.792,0.592,5.792,0.592s0.611-2.707,1.342-6.887C121.644,99.336,122.022,96.232,122.022,96.232z"/>
<path fill="#A6A8AB" d="M107.748,92.098c-1.862,7.112-4.483,13.355-7.014,18.357c-0.425,0.84,13.744,5.002,15.137,1.902
	c2.48-5.523,4.849-12.004,6.519-19.221C123.48,88.432,108.979,87.395,107.748,92.098z"/>
<path fill="#A6A8AB" d="M194.516,45.613v1.363c0,3.925-1.199,6.433-3.871,7.687c3.217,1.254,4.472,4.144,4.472,8.179v3.107
	c0,5.888-3.107,9.05-9.105,9.05h-9.432V36.835h9.051C191.844,36.835,194.516,39.725,194.516,45.613z M182.575,42.287v10.086h2.345
	c2.234,0,3.598-0.981,3.598-4.035v-2.126c0-2.726-0.926-3.925-3.053-3.925H182.575z M182.575,57.825v11.722h3.435
	c2.018,0,3.107-0.927,3.107-3.762V62.46c0-3.544-1.146-4.635-3.87-4.635H182.575z"/>
<path fill="#A6A8AB" d="M211.197,74.999c-0.327-0.981-0.545-1.582-0.545-4.689v-5.997c0-3.544-1.199-4.853-3.926-4.853h-2.072
	v15.539h-5.996V36.835h9.05c6.216,0,8.887,2.889,8.887,8.777v2.999c0,3.926-1.254,6.488-3.925,7.742
	c2.999,1.254,3.979,4.144,3.979,8.123v5.889c0,1.854,0.056,3.217,0.654,4.634H211.197z M204.654,42.287v11.721h2.346
	c2.234,0,3.599-0.98,3.599-4.034v-3.762c0-2.726-0.928-3.925-3.054-3.925H204.654z"/>
<path fill="#A6A8AB" d="M220.627,36.835h5.998v38.164h-5.998V36.835z"/>
<path fill="#A6A8AB" d="M239.98,53.736h8.396v12.103c0,6.106-3.055,9.596-8.941,9.596c-5.889,0-8.94-3.49-8.94-9.596V45.995
	c0-6.106,3.053-9.596,8.94-9.596s8.941,3.489,8.941,9.596v3.707h-5.67v-4.089c0-2.726-1.2-3.762-3.108-3.762
	s-3.105,1.036-3.105,3.762v20.608c0,2.726,1.197,3.707,3.105,3.707s3.108-0.98,3.108-3.707v-7.033h-2.728L239.98,53.736
	L239.98,53.736z"/>
<path fill="#A6A8AB" d="M258.244,74.999h-5.997V36.835h5.997V53.19h6.814V36.835h6.105v38.164h-6.105V58.643h-6.814V74.999z"/>
<path fill="#A6A8AB" d="M273.781,36.835h18.536v5.452h-6.27v32.712h-5.997V42.287h-6.271L273.781,36.835L273.781,36.835z"/>
<path fill="#A6A8AB" d="M293.655,45.995c0-6.106,3.218-9.596,9.104-9.596s9.104,3.489,9.104,9.596V65.84
	c0,6.106-3.217,9.596-9.104,9.596s-9.104-3.49-9.104-9.596V45.995z M299.652,66.221c0,2.726,1.199,3.762,3.107,3.762
	c1.907,0,3.106-1.036,3.106-3.762V45.613c0-2.726-1.199-3.762-3.106-3.762c-1.908,0-3.107,1.036-3.107,3.762V66.221z"/>
<path fill="#A6A8AB" d="M321.076,47.357v27.642h-5.396V36.835h7.523l6.16,22.844V36.835h5.343v38.164h-6.159L321.076,47.357z"/>
<path fill="#58595B" d="M176.578,79.671h9.485c5.998,0,8.941,3.326,8.941,9.433v19.299c0,6.106-2.943,9.434-8.941,9.434h-9.485
	V79.671z M182.575,85.122v27.26h3.38c1.907,0,3.054-0.979,3.054-3.707V88.83c0-2.727-1.146-3.708-3.054-3.708H182.575z"/>
<path fill="#58595B" d="M198.657,79.671h5.996v38.164h-5.996V79.671z"/>
<path fill="#58595B" d="M218.011,96.57h8.396v12.104c0,6.106-3.054,9.597-8.941,9.597s-8.941-3.489-8.941-9.597V88.83
	c0-6.105,3.055-9.596,8.941-9.596c5.889,0,8.941,3.489,8.941,9.596v3.707h-5.671v-4.089c0-2.728-1.198-3.763-3.106-3.763
	s-3.107,1.035-3.107,3.763v20.608c0,2.726,1.199,3.707,3.107,3.707s3.106-0.981,3.106-3.707v-7.033h-2.726V96.57z"/>
<path fill="#58595B" d="M230.276,79.671h5.997v38.164h-5.997V79.671z"/>
<path fill="#58595B" d="M238.891,79.671h18.536v5.451h-6.27v32.713h-5.997V85.122h-6.271L238.891,79.671L238.891,79.671z"/>
<path fill="#58595B" d="M277.38,117.835h-6.052l-1.036-6.924h-7.36l-1.035,6.924h-5.507l6.106-38.164h8.776L277.38,117.835z
	 M263.695,105.73h5.779l-2.89-19.301L263.695,105.73z"/>
<path fill="#58595B" d="M280.159,79.671h5.996v32.711h9.868v5.453h-15.864V79.671L280.159,79.671z"/>
<path fill="#A6A8AB" d="M304.637,96.626h7.742v5.452h-7.742v15.757h-5.997V79.671h15.865v5.451h-9.868V96.626L304.637,96.626z"/>
<path fill="#A6A8AB" d="M323.391,95.754h8.231v5.452h-8.231v11.176h10.359v5.453h-16.356V79.671h16.356v5.451h-10.359V95.754z"/>
<path fill="#A6A8AB" d="M345.525,79.234c5.833,0,8.832,3.489,8.832,9.596v1.199h-5.67v-1.581c0-2.728-1.091-3.763-2.999-3.763
	s-2.998,1.035-2.998,3.763c0,7.852,11.722,9.323,11.722,20.227c0,6.106-3.054,9.597-8.94,9.597c-5.89,0-8.941-3.489-8.941-9.597
	v-2.344h5.67v2.726c0,2.727,1.199,3.709,3.107,3.709s3.107-0.982,3.107-3.709c0-7.851-11.722-9.322-11.722-20.227
	C336.693,82.725,339.691,79.234,345.525,79.234z"/>
<path fill="#A6A8AB" d="M356.101,79.671h18.536v5.451h-6.271v32.713h-5.997V85.122h-6.27L356.101,79.671L356.101,79.671z"/>
<path fill="#A6A8AB" d="M377.252,79.671h5.996v38.164h-5.996V79.671z"/>
<path fill="#A6A8AB" d="M396.659,110.802l4.579-31.131h5.507l-5.889,38.164h-8.94l-5.889-38.164h6.052L396.659,110.802z"/>
<path fill="#A6A8AB" d="M426.49,117.835h-6.052l-1.036-6.924h-7.36l-1.034,6.924H405.5l6.105-38.164h8.777L426.49,117.835z
	 M412.806,105.73h5.779l-2.891-19.301L412.806,105.73z"/>
<path fill="#A6A8AB" d="M429.27,79.671h5.997v32.711h9.868v5.453H429.27V79.671z"/>
</svg>
