<?xml version="1.0" encoding="utf-8"?>
<!-- Generator: Adobe Illustrator 15.0.0, SVG Export Plug-In . SVG Version: 6.00 Build 0)  -->
<!DOCTYPE svg PUBLIC "-//W3C//DTD SVG 1.1//EN" "http://www.w3.org/Graphics/SVG/1.1/DTD/svg11.dtd">
<svg version="1.1" id="Isolation_Mode" xmlns="http://www.w3.org/2000/svg" xmlns:xlink="http://www.w3.org/1999/xlink" x="0px"
	 y="0px" width="120px" height="133px" viewBox="206.068 229.83 119.133 132.904"
	 enable-background="new 206.068 229.83 119.133 132.904" xml:space="preserve">
<g>
	<path fill="#A7A9AC" d="M279.149,251.598c1-2.017,1.578-4.277,1.578-6.674c0-8.322-6.773-15.094-15.097-15.094
		c-8.319,0-15.088,6.771-15.088,15.094c0,8.319,6.77,15.09,15.088,15.09c0.549,0,1.086-0.034,1.62-0.09
		c5.131,8.747,11.029,22.183,10.153,36.757c-0.889,14.814-6.203,27.553-10.729,35.918c-0.346-0.023-0.691-0.053-1.045-0.053
		c-8.319,0-15.088,6.77-15.088,15.092c0,8.324,6.769,15.096,15.088,15.096c8.323,0,15.097-6.771,15.097-15.096
		c0-2.605-0.665-5.059-1.834-7.202c5.401-9.739,11.855-24.86,12.938-42.889C292.963,278.73,285.455,262.062,279.149,251.598z
		 M265.631,250.091c-2.848,0-5.165-2.318-5.165-5.167c0-2.851,2.316-5.17,5.165-5.17c2.854,0,5.174,2.319,5.174,5.17
		C270.804,247.772,268.483,250.091,265.631,250.091z M265.631,352.81c-2.848,0-5.164-2.318-5.164-5.172
		c0-2.85,2.316-5.168,5.164-5.168c2.854,0,5.174,2.318,5.174,5.168C270.804,350.49,268.483,352.81,265.631,352.81z"/>
	<path fill="#939598" d="M275.149,277.989c0.29,1.007,0.806,3.069,0.806,3.069s2.359-0.585,6.541-0.759
		c5.254-0.219,8.101,0.028,8.101,0.028s-0.68-3.154-1.083-4.682C286.975,266.037,273.118,270.945,275.149,277.989z"/>
	<path fill="#03A59E" d="M310.107,255.512c-5.251,0-9.881,2.699-12.583,6.78c-11.189-0.145-27.624,1.447-43.895,9.583
		c-17.062,8.533-27.795,24.007-33.664,35.052c-7.763,0.613-13.897,7.111-13.897,15.031c0,8.322,6.769,15.094,15.089,15.094
		c8.322,0,15.093-6.771,15.093-15.094c0-3.401-1.146-6.537-3.053-9.062c4.98-9.134,13.713-21.501,26.897-28.096
		c13.191-6.597,26.799-8.043,36.252-8.036c2.361,5.256,7.636,8.932,13.76,8.932c8.323,0,15.094-6.772,15.094-15.095
		C325.202,262.281,318.43,255.512,310.107,255.512z M221.157,327.125c-2.849,0-5.166-2.316-5.166-5.166
		c0-2.851,2.317-5.168,5.166-5.168c2.851,0,5.169,2.317,5.169,5.168C226.327,324.808,224.008,327.125,221.157,327.125z
		 M310.107,275.771c-2.85,0-5.168-2.32-5.168-5.171c0-2.85,2.318-5.165,5.168-5.165c2.851,0,5.17,2.315,5.17,5.165
		C315.278,273.451,312.958,275.771,310.107,275.771z"/>
	<g>
		<path fill="#009990" d="M225.43,297.796c0,0,1.325-1.933,2.033-2.907c6.188-8.511,15.779,2.588,10.627,10.04
			c-1.358,1.966-3.646,5.748-3.646,5.748s-2.348-1.895-5.319-6.35C226.804,300.841,225.43,297.796,225.43,297.796z"/>
	</g>
	<path fill="#FFFFFF" d="M310.107,306.867c-6.229,0-11.59,3.797-13.892,9.196c-10.398,0.252-25.459-1.129-37.753-9.248
		c-12.312-8.129-20.371-19.194-25.09-27.387c1.802-2.485,2.877-5.53,2.877-8.828c0-8.319-6.771-15.089-15.093-15.089
		c-8.321,0-15.089,6.77-15.089,15.089c0,8.017,6.287,14.575,14.185,15.047c5.471,9.764,15.067,23.204,30.248,33.229
		c14.417,9.521,31.175,11.699,43.493,11.699c1.283,0,2.516-0.023,3.694-0.063c2.724,3.944,7.273,6.54,12.419,6.54
		c8.323,0,15.094-6.771,15.094-15.094C325.201,313.637,318.43,306.867,310.107,306.867z M221.157,275.771
		c-2.849,0-5.166-2.32-5.166-5.171c0-2.85,2.317-5.165,5.166-5.165c2.851,0,5.169,2.315,5.169,5.165
		C226.327,273.451,224.008,275.771,221.157,275.771z M310.107,327.125c-2.85,0-5.168-2.316-5.168-5.166
		c0-2.851,2.318-5.168,5.168-5.168c2.851,0,5.17,2.317,5.17,5.168C315.278,324.808,312.958,327.125,310.107,327.125z"/>
	<path fill="#E6E7E8" d="M289.225,315.964c0,0-2.079-0.129-3.147-0.228c-8.836-0.808-14.944,12.677-5.128,13.99
		c1.98,0.267,5.792,0.592,5.792,0.592s0.612-2.707,1.342-6.887C288.846,319.067,289.225,315.964,289.225,315.964z"/>
	<path fill="#A7A9AC" d="M274.951,311.83c-1.862,7.111-4.484,13.354-7.013,18.356c-0.425,0.84,13.744,5.002,15.136,1.901
		c2.481-5.522,4.849-12.002,6.518-19.219C290.683,308.162,276.182,307.125,274.951,311.83z"/>
</g>
</svg>
