<?xml version="1.0" encoding="utf-8"?>
<!-- Generator: Adobe Illustrator 19.0.0, SVG Export Plug-In . SVG Version: 6.00 Build 0)  -->
<svg version="1.1" id="Layer_1" xmlns="http://www.w3.org/2000/svg" xmlns:xlink="http://www.w3.org/1999/xlink" x="0px" y="0px"
	 viewBox="0 0 1600 900" style="enable-background:new 0 0 1600 900;" xml:space="preserve">
<g>
	<polygon style="fill:#E64332;stroke:#E64332;" points="0,0 0,82.5761719 139.3184204,0 	"/>
	<polygon style="fill:#FC784A;stroke:#FC784A;" points="410.5304565,0 190.7565918,0 421,172 	"/>
	<polygon style="fill:#FFAC6A;stroke:#FFAC6A;" points="687,142 557.6221924,0 410.5304565,0 421,172 	"/>
	<polygon style="fill:#FF825F;stroke:#FF825F;" points="696.0220947,0 557.6221924,0 687,142 	"/>
	<polygon style="fill:#FA8477;stroke:#FA8477;" points="772.1226196,0 696.0220947,0 687,142 	"/>
	<polygon style="fill:#F1AA9B;stroke:#F1AA9B;" points="996,82 972.2280273,0 772.1226196,0 687,142 	"/>
	<polygon style="fill:#D27E86;stroke:#D27E86;" points="1138.5368652,0 972.2280273,0 996,82 	"/>
	<polygon style="fill:#BF928E;stroke:#BF928E;" points="1244,35 1247.7745361,0 1138.5368652,0 996,82 	"/>
	<polygon style="fill:#A68185;stroke:#A68185;" points="1476,154 1322,0 1247.7745361,0 1244,35 	"/>
	<polygon style="fill:#9B486A;stroke:#9B486A;" points="1477.4326172,0 1322,0 1476,154 	"/>
	<polygon style="fill:#842C5C;stroke:#842C5C;" points="1600,39.1851807 1600,0 1477.4326172,0 1476,154 	"/>
	<polygon style="fill:#805C71;stroke:#805C71;" points="1476,154 1600,156.5941162 1600,39.1851807 	"/>
	<polygon style="fill:#E8917A;stroke:#E8917A;" points="0,189.5578613 0,420.1106567 255,242 	"/>
	<polygon style="fill:#ED844F;stroke:#ED844F;" points="173.7104492,0 139.3184204,0 0,82.5761719 0,189.5578613 255,242 	"/>
	<polygon style="fill:#FBA961;stroke:#FBA961;" points="421,172 190.7565918,0 173.7104492,0 255,242 	"/>
	<polygon style="fill:#FDCE8D;stroke:#FDCE8D;" points="380,329 421,172 255,242 	"/>
	<polygon style="fill:#FEE3AC;stroke:#FEE3AC;" points="380,329 616,393 421,172 	"/>
	<polygon style="fill:#FFF2A7;stroke:#FFF2A7;" points="616,393 687,142 421,172 	"/>
	<polygon style="fill:#FBFED4;stroke:#FBFED4;" points="616,393 964,326 687,142 	"/>
	<polygon style="fill:#EEEFC7;stroke:#EEEFC7;" points="964,326 996,82 687,142 	"/>
	<polygon style="fill:#D2E9D8;stroke:#D2E9D8;" points="964,326 1201,383 996,82 	"/>
	<polygon style="fill:#C2CFB2;stroke:#C2CFB2;" points="1201,383 1244,35 996,82 	"/>
	<polygon style="fill:#A9BBAC;stroke:#A9BBAC;" points="1201,383 1476,154 1244,35 	"/>
	<polygon style="fill:#9FB6CD;stroke:#9FB6CD;" points="1457,434 1476,154 1201,383 	"/>
	<polygon style="fill:#879AB5;stroke:#879AB5;" points="1457,434 1600,324.1500244 1600,222.4776001 1476,154 	"/>
	<polygon style="fill:#808590;stroke:#808590;" points="1476,154 1600,222.4776001 1600,156.5941162 	"/>
	<polygon style="fill:#C78A8F;stroke:#C78A8F;" points="0,426.3815918 0,559.9645996 221,470 	"/>
	<polygon style="fill:#F3A899;stroke:#F3A899;" points="255,242 0,420.1106567 0,426.3815918 221,470 	"/>
	<polygon style="fill:#FBC19F;stroke:#FBC19F;" points="221,470 380,329 255,242 	"/>
	<polygon style="fill:#F3D0AD;stroke:#F3D0AD;" points="221,470 472,483 380,329 	"/>
	<polygon style="fill:#FCE6BE;stroke:#FCE6BE;" points="472,483 616,393 380,329 	"/>
	<polygon style="fill:#EFF1C9;stroke:#EFF1C9;" points="601,469 616,393 472,483 	"/>
	<polygon style="fill:#E7FFE0;stroke:#E7FFE0;" points="601,469 929,572 616,393 	"/>
	<polygon style="fill:#E8FBF5;stroke:#E8FBF5;" points="929,572 964,326 616,393 	"/>
	<polygon style="fill:#CCECF4;stroke:#CCECF4;" points="929,572 1201,383 964,326 	"/>
	<polygon style="fill:#9BD3EC;stroke:#9BD3EC;" points="929,572 1255,623 1201,383 	"/>
	<polygon style="fill:#8AC0DF;stroke:#8AC0DF;" points="1255,623 1393,516 1201,383 	"/>
	<polygon style="fill:#94BBDA;stroke:#94BBDA;" points="1393,516 1457,434 1201,383 	"/>
	<polygon style="fill:#6B99C9;stroke:#6B99C9;" points="1393,516 1600,516.5864258 1600,475.0692139 1457,434 	"/>
	<polygon style="fill:#7C8AC1;stroke:#7C8AC1;" points="1600,475.0692139 1600,324.1500244 1457,434 	"/>
	<polygon style="fill:#6E2865;stroke:#6E2865;" points="0,694.4123535 0,821.8891602 207,846 	"/>
	<polygon style="fill:#9C6A85;stroke:#9C6A85;" points="221,470 0,559.9645996 0,694.4123535 207,846 	"/>
	<polygon style="fill:#9D7D8D;stroke:#9D7D8D;" points="207,846 425,735 221,470 	"/>
	<polygon style="fill:#C6BCAB;stroke:#C6BCAB;" points="425,735 472,483 221,470 	"/>
	<polygon style="fill:#C7D1BD;stroke:#C7D1BD;" points="425,735 601,469 472,483 	"/>
	<polygon style="fill:#98A7B2;stroke:#98A7B2;" points="425,735 745.3968506,900 781.925293,900 601,469 	"/>
	<polygon style="fill:#A4C4D7;stroke:#A4C4D7;" points="601,469 781.925293,900 801.3408813,900 929,572 	"/>
	<polygon style="fill:#7291D0;stroke:#7291D0;" points="929,572 801.3408813,900 830.0869141,900 938,832 	"/>
	<polygon style="fill:#78AADC;stroke:#78AADC;" points="938,832 1255,623 929,572 	"/>
	<polygon style="fill:#4A7BC4;stroke:#4A7BC4;" points="938,832 1272,817 1255,623 	"/>
	<polygon style="fill:#2D5BB3;stroke:#2D5BB3;" points="1272,817 1419,877 1255,623 	"/>
	<polygon style="fill:#477AC3;stroke:#477AC3;" points="1255,623 1419,877 1393,516 	"/>
	<polygon style="fill:#1C47A9;stroke:#1C47A9;" points="1419,877 1600,837.0991211 1600,694.3009033 1393,516 	"/>
	<polygon style="fill:#3762B6;stroke:#3762B6;" points="1393,516 1600,694.3009033 1600,516.5864258 	"/>
	<polygon style="fill:#68104A;stroke:#68104A;" points="0,821.8891602 0,900 165.4958496,900 207,846 	"/>
	<polygon style="fill:#752B44;stroke:#752B44;" points="165.4958496,900 224.8615112,900 207,846 	"/>
	<polygon style="fill:#7C4666;stroke:#7C4666;" points="207,846 224.8615112,900 366.2938232,900 425,735 	"/>
	<polygon style="fill:#7F5B5D;stroke:#7F5B5D;" points="366.2938232,900 464.1968384,900 425,735 	"/>
	<polygon style="fill:#7F7176;stroke:#7F7176;" points="464.1968384,900 587.9244995,900 425,735 	"/>
	<polygon style="fill:#807A93;stroke:#807A93;" points="587.9244995,900 745.3968506,900 425,735 	"/>
	<polygon style="fill:#6C77B3;stroke:#6C77B3;" points="830.0869141,900 952.2954102,900 938,832 	"/>
	<polygon style="fill:#596EAC;stroke:#596EAC;" points="952.2954102,900 1036,900 938,832 	"/>
	<polygon style="fill:#4862B1;stroke:#4862B1;" points="938,832 1036,900 1196.145752,900 1272,817 	"/>
	<polygon style="fill:#2E48A1;stroke:#2E48A1;" points="1272,817 1196.145752,900 1346.967041,900 1419,877 	"/>
	<polygon style="fill:#243D8C;stroke:#243D8C;" points="1346.967041,900 1426.204834,900 1419,877 	"/>
	<polygon style="fill:#071A84;stroke:#071A84;" points="1600,837.0991211 1419,877 1426.204834,900 1600,900 	"/>
</g>
</svg>
