<svg width="1440" height="794" xmlns="http://www.w3.org/2000/svg"><g><path d="M-316,-425L-368,1219L-199,87Z" fill="#d1805f" stroke="#d1805f"/><path d="M-316,-425L-199,87L159,-299Z" fill="#e00209" stroke="#e00209"/><path d="M-316,-425L159,-299L1528,-389Z" fill="#ff6d45" stroke="#ff6d45"/><path d="M-316,-425L1528,-389L1994,-386Z" fill="#c35e6d" stroke="#c35e6d"/><path d="M159,-299L-199,87L213,116Z" fill="#f0332a" stroke="#f0332a"/><path d="M159,-299L213,116L503,-158Z" fill="#fd512f" stroke="#fd512f"/><path d="M159,-299L503,-158L969,-251Z" fill="#ff7652" stroke="#ff7652"/><path d="M159,-299L969,-251L1528,-389Z" fill="#e27378" stroke="#e27378"/><path d="M503,-158L213,116L846,240Z" fill="#ffac72" stroke="#ffac72"/><path d="M503,-158L846,240L969,-251Z" fill="#f28083" stroke="#f28083"/><path d="M969,-251L846,240L1050,270Z" fill="#d6ad9c" stroke="#d6ad9c"/><path d="M969,-251L1050,270L1537,192Z" fill="#b08587" stroke="#b08587"/><path d="M969,-251L1537,192L1528,-389Z" fill="#992f54" stroke="#992f54"/><path d="M1528,-389L1537,192L1994,-386Z" fill="#800035" stroke="#800035"/><path d="M1994,-386L1537,192L2221,298Z" fill="#802b3e" stroke="#802b3e"/><path d="M-199,87L-368,1219L-120,537Z" fill="#9d687d" stroke="#9d687d"/><path d="M-199,87L-120,537L213,116Z" fill="#e88c61" stroke="#e88c61"/><path d="M213,116L-120,537L411,775Z" fill="#f0b8a2" stroke="#f0b8a2"/><path d="M213,116L411,775L719,499Z" fill="#f8ebc3" stroke="#f8ebc3"/><path d="M213,116L719,499L846,240Z" fill="#fffbb5" stroke="#fffbb5"/><path d="M846,240L719,499L1050,270Z" fill="#e4f3e5" stroke="#e4f3e5"/><path d="M1050,270L719,499L1269,587Z" fill="#c9e5f0" stroke="#c9e5f0"/><path d="M1050,270L1269,587L1537,192Z" fill="#a1b9cb" stroke="#a1b9cb"/><path d="M1537,192L1269,587L1720,536Z" fill="#8192c5" stroke="#8192c5"/><path d="M1537,192L1720,536L2221,298Z" fill="#808097" stroke="#808097"/><path d="M2221,298L1720,536L1867,646Z" fill="#71809e" stroke="#71809e"/><path d="M2221,298L1867,646L2081,1308Z" fill="#1b3577" stroke="#1b3577"/><path d="M-120,537L-368,1219L332,1107Z" fill="#670e4b" stroke="#670e4b"/><path d="M-120,537L332,1107L411,775Z" fill="#85607e" stroke="#85607e"/><path d="M411,775L332,1107L497,968Z" fill="#7f667b" stroke="#7f667b"/><path d="M411,775L497,968L719,499Z" fill="#9bacb5" stroke="#9bacb5"/><path d="M719,499L497,968L977,1039Z" fill="#7791c2" stroke="#7791c2"/><path d="M719,499L977,1039L1269,587Z" fill="#79adde" stroke="#79adde"/><path d="M1269,587L977,1039L1374,1326Z" fill="#2e4897" stroke="#2e4897"/><path d="M1269,587L1374,1326L1720,536Z" fill="#0f38a0" stroke="#0f38a0"/><path d="M1720,536L1374,1326L1867,646Z" fill="#00148b" stroke="#00148b"/><path d="M1867,646L1374,1326L2081,1308Z" fill="#00004e" stroke="#00004e"/><path d="M-368,1219L1374,1326L332,1107Z" fill="#7f6b4c" stroke="#7f6b4c"/><path d="M332,1107L1374,1326L977,1039Z" fill="#61728c" stroke="#61728c"/><path d="M332,1107L977,1039L497,968Z" fill="#807c86" stroke="#807c86"/></g></svg>