<svg width="1440" height="794" xmlns="http://www.w3.org/2000/svg"><g><path d="M-51,-58L-207,210L95,31Z" fill="#e64332" stroke="#e64332"/><path d="M-51,-58L95,31L76,-180Z" fill="#ef2021" stroke="#ef2021"/><path d="M76,-180L95,31L327,-125Z" fill="#fa3828" stroke="#fa3828"/><path d="M76,-180L327,-125L637,-172Z" fill="#fe5b35" stroke="#fe5b35"/><path d="M76,-180L637,-172L1407,-228Z" fill="#f97d6c" stroke="#f97d6c"/><path d="M327,-125L95,31L348,220Z" fill="#fc784a" stroke="#fc784a"/><path d="M327,-125L348,220L614,190Z" fill="#ffac6a" stroke="#ffac6a"/><path d="M327,-125L614,190L637,-172Z" fill="#ff825f" stroke="#ff825f"/><path d="M637,-172L614,190L834,-177Z" fill="#fa8477" stroke="#fa8477"/><path d="M637,-172L834,-177L1407,-228Z" fill="#d56d75" stroke="#d56d75"/><path d="M834,-177L614,190L923,130Z" fill="#f1aa9b" stroke="#f1aa9b"/><path d="M834,-177L923,130L1182,-19Z" fill="#d27e86" stroke="#d27e86"/><path d="M834,-177L1182,-19L1407,-228Z" fill="#b75367" stroke="#b75367"/><path d="M1182,-19L923,130L1171,83Z" fill="#bf928e" stroke="#bf928e"/><path d="M1182,-19L1171,83L1403,202Z" fill="#a68185" stroke="#a68185"/><path d="M1182,-19L1403,202L1407,-228Z" fill="#9b486a" stroke="#9b486a"/><path d="M1407,-228L1403,202L1646,-23Z" fill="#842c5c" stroke="#842c5c"/><path d="M1646,-23L1403,202L1642,207Z" fill="#805c71" stroke="#805c71"/><path d="M1646,-23L1642,207L1673,565Z" fill="#807c89" stroke="#807c89"/><path d="M-207,210L-218,853L-191,656Z" fill="#af7480" stroke="#af7480"/><path d="M-207,210L-191,656L-80,473Z" fill="#db8085" stroke="#db8085"/><path d="M-207,210L-80,473L182,290Z" fill="#e8917a" stroke="#e8917a"/><path d="M-207,210L182,290L95,31Z" fill="#ed844f" stroke="#ed844f"/><path d="M95,31L182,290L348,220Z" fill="#fba961" stroke="#fba961"/><path d="M348,220L182,290L307,377Z" fill="#fdce8d" stroke="#fdce8d"/><path d="M348,220L307,377L543,441Z" fill="#fee3ac" stroke="#fee3ac"/><path d="M348,220L543,441L614,190Z" fill="#fff2a7" stroke="#fff2a7"/><path d="M614,190L543,441L891,374Z" fill="#fbfed4" stroke="#fbfed4"/><path d="M614,190L891,374L923,130Z" fill="#eeefc7" stroke="#eeefc7"/><path d="M923,130L891,374L1128,431Z" fill="#d2e9d8" stroke="#d2e9d8"/><path d="M923,130L1128,431L1171,83Z" fill="#c2cfb2" stroke="#c2cfb2"/><path d="M1171,83L1128,431L1403,202Z" fill="#a9bbac" stroke="#a9bbac"/><path d="M1403,202L1128,431L1384,482Z" fill="#9fb6cd" stroke="#9fb6cd"/><path d="M1403,202L1384,482L1604,313Z" fill="#879ab5" stroke="#879ab5"/><path d="M1403,202L1604,313L1642,207Z" fill="#808590" stroke="#808590"/><path d="M1642,207L1604,313L1673,565Z" fill="#8080ad" stroke="#8080ad"/><path d="M-80,473L-191,656L148,518Z" fill="#c78a8f" stroke="#c78a8f"/><path d="M-80,473L148,518L182,290Z" fill="#f3a899" stroke="#f3a899"/><path d="M182,290L148,518L307,377Z" fill="#fbc19f" stroke="#fbc19f"/><path d="M307,377L148,518L399,531Z" fill="#f3d0ad" stroke="#f3d0ad"/><path d="M307,377L399,531L543,441Z" fill="#fce6be" stroke="#fce6be"/><path d="M543,441L399,531L528,517Z" fill="#eff1c9" stroke="#eff1c9"/><path d="M543,441L528,517L856,620Z" fill="#e7ffe0" stroke="#e7ffe0"/><path d="M543,441L856,620L891,374Z" fill="#e8fbf5" stroke="#e8fbf5"/><path d="M891,374L856,620L1128,431Z" fill="#ccecf4" stroke="#ccecf4"/><path d="M1128,431L856,620L1182,671Z" fill="#9bd3ec" stroke="#9bd3ec"/><path d="M1128,431L1182,671L1320,564Z" fill="#8ac0df" stroke="#8ac0df"/><path d="M1128,431L1320,564L1384,482Z" fill="#94bbda" stroke="#94bbda"/><path d="M1384,482L1320,564L1673,565Z" fill="#6b99c9" stroke="#6b99c9"/><path d="M1384,482L1673,565L1604,313Z" fill="#7c8ac1" stroke="#7c8ac1"/><path d="M-191,656L-218,853L134,894Z" fill="#6e2865" stroke="#6e2865"/><path d="M-191,656L134,894L148,518Z" fill="#9c6a85" stroke="#9c6a85"/><path d="M148,518L134,894L352,783Z" fill="#9d7d8d" stroke="#9d7d8d"/><path d="M148,518L352,783L399,531Z" fill="#c6bcab" stroke="#c6bcab"/><path d="M399,531L352,783L528,517Z" fill="#c7d1bd" stroke="#c7d1bd"/><path d="M528,517L352,783L719,972Z" fill="#98a7b2" stroke="#98a7b2"/><path d="M528,517L719,972L856,620Z" fill="#a4c4d7" stroke="#a4c4d7"/><path d="M856,620L719,972L865,880Z" fill="#7291d0" stroke="#7291d0"/><path d="M856,620L865,880L1182,671Z" fill="#78aadc" stroke="#78aadc"/><path d="M1182,671L865,880L1199,865Z" fill="#4a7bc4" stroke="#4a7bc4"/><path d="M1182,671L1199,865L1346,925Z" fill="#2d5bb3" stroke="#2d5bb3"/><path d="M1182,671L1346,925L1320,564Z" fill="#477ac3" stroke="#477ac3"/><path d="M1320,564L1346,925L1659,856Z" fill="#1c47a9" stroke="#1c47a9"/><path d="M1320,564L1659,856L1673,565Z" fill="#3762b6" stroke="#3762b6"/><path d="M1673,565L1659,856L1670,1100Z" fill="#001389" stroke="#001389"/><path d="M-218,853L-52,1136L134,894Z" fill="#68104a" stroke="#68104a"/><path d="M134,894L-52,1136L220,1154Z" fill="#752b44" stroke="#752b44"/><path d="M134,894L220,1154L352,783Z" fill="#7c4666" stroke="#7c4666"/><path d="M352,783L220,1154L457,1225Z" fill="#7f5b5d" stroke="#7f5b5d"/><path d="M352,783L457,1225L666,1101Z" fill="#7f7176" stroke="#7f7176"/><path d="M352,783L666,1101L719,972Z" fill="#807a93" stroke="#807a93"/><path d="M719,972L666,1101L902,1056Z" fill="#747ba0" stroke="#747ba0"/><path d="M719,972L902,1056L865,880Z" fill="#6c77b3" stroke="#6c77b3"/><path d="M865,880L902,1056L1061,1016Z" fill="#596eac" stroke="#596eac"/><path d="M865,880L1061,1016L1199,865Z" fill="#4862b1" stroke="#4862b1"/><path d="M1199,865L1061,1016L1346,925Z" fill="#2e48a1" stroke="#2e48a1"/><path d="M1346,925L1061,1016L1398,1091Z" fill="#243d8c" stroke="#243d8c"/><path d="M1346,925L1398,1091L1659,856Z" fill="#071a84" stroke="#071a84"/><path d="M1659,856L1398,1091L1670,1100Z" fill="#00076f" stroke="#00076f"/><path d="M-52,1136L457,1225L220,1154Z" fill="#7c4138" stroke="#7c4138"/><path d="M457,1225L1670,1100L1398,1091Z" fill="#324d7c" stroke="#324d7c"/><path d="M457,1225L1398,1091L902,1056Z" fill="#5d7092" stroke="#5d7092"/><path d="M457,1225L902,1056L666,1101Z" fill="#7c7e80" stroke="#7c7e80"/><path d="M902,1056L1398,1091L1061,1016Z" fill="#3a5791" stroke="#3a5791"/></g></svg>