<svg width="1440" height="773" xmlns="http://www.w3.org/2000/svg"><g><path d="M-28,-78L-135,199L-64,57Z" fill="#e44232" stroke="#e44232"/><path d="M-28,-78L-64,57L34,-71Z" fill="#ea2120" stroke="#ea2120"/><path d="M-28,-78L34,-71L235,-109Z" fill="#f22a1e" stroke="#f22a1e"/><path d="M34,-71L-64,57L43,119Z" fill="#ec4735" stroke="#ec4735"/><path d="M34,-71L43,119L248,57Z" fill="#f55f41" stroke="#f55f41"/><path d="M34,-71L248,57L235,-109Z" fill="#fb4735" stroke="#fb4735"/><path d="M235,-109L248,57L330,-116Z" fill="#fe543d" stroke="#fe543d"/><path d="M330,-116L248,57L422,70Z" fill="#fe7f56" stroke="#fe7f56"/><path d="M330,-116L422,70L513,-47Z" fill="#ff7e58" stroke="#ff7e58"/><path d="M330,-116L513,-47L635,-100Z" fill="#ff7652" stroke="#ff7652"/><path d="M330,-116L635,-100L996,-100Z" fill="#fc7f65" stroke="#fc7f65"/><path d="M513,-47L422,70L538,91Z" fill="#ffa673" stroke="#ffa673"/><path d="M513,-47L538,91L707,24Z" fill="#ffa579" stroke="#ffa579"/><path d="M513,-47L707,24L635,-100Z" fill="#ff886c" stroke="#ff886c"/><path d="M635,-100L707,24L882,-80Z" fill="#f67f7a" stroke="#f67f7a"/><path d="M635,-100L882,-80L996,-100Z" fill="#ed787b" stroke="#ed787b"/><path d="M882,-80L707,24L836,87Z" fill="#f19c94" stroke="#f19c94"/><path d="M882,-80L836,87L951,18Z" fill="#e39291" stroke="#e39291"/><path d="M882,-80L951,18L996,-100Z" fill="#d96c7c" stroke="#d96c7c"/><path d="M996,-100L951,18L1117,-43Z" fill="#ca687a" stroke="#ca687a"/><path d="M996,-100L1117,-43L1219,-27Z" fill="#b9516d" stroke="#b9516d"/><path d="M996,-100L1219,-27L1391,-38Z" fill="#a84265" stroke="#a84265"/><path d="M996,-100L1391,-38L1528,-65Z" fill="#952e58" stroke="#952e58"/><path d="M1117,-43L951,18L1122,53Z" fill="#c27a84" stroke="#c27a84"/><path d="M1117,-43L1122,53L1219,-27Z" fill="#b16377" stroke="#b16377"/><path d="M1219,-27L1122,53L1240,123Z" fill="#aa7883" stroke="#aa7883"/><path d="M1219,-27L1240,123L1391,-38Z" fill="#995872" stroke="#995872"/><path d="M1391,-38L1240,123L1435,27Z" fill="#8c5470" stroke="#8c5470"/><path d="M1391,-38L1435,27L1528,-65Z" fill="#802456" stroke="#802456"/><path d="M1528,-65L1435,27L1567,121Z" fill="#80345f" stroke="#80345f"/><path d="M1528,-65L1567,121L1620,262Z" fill="#80526e" stroke="#80526e"/><path d="M-64,57L-135,199L43,119Z" fill="#e76647" stroke="#e76647"/><path d="M43,119L-135,199L93,231Z" fill="#eb895e" stroke="#eb895e"/><path d="M43,119L93,231L248,57Z" fill="#f79360" stroke="#f79360"/><path d="M248,57L93,231L279,218Z" fill="#feb273" stroke="#feb273"/><path d="M248,57L279,218L343,186Z" fill="#febd7a" stroke="#febd7a"/><path d="M248,57L343,186L422,70Z" fill="#feb272" stroke="#feb272"/><path d="M422,70L343,186L575,191Z" fill="#ffd68d" stroke="#ffd68d"/><path d="M422,70L575,191L538,91Z" fill="#ffce8b" stroke="#ffce8b"/><path d="M538,91L575,191L706,190Z" fill="#ffe5a2" stroke="#ffe5a2"/><path d="M538,91L706,190L707,24Z" fill="#fdce97" stroke="#fdce97"/><path d="M707,24L706,190L836,87Z" fill="#f5cba5" stroke="#f5cba5"/><path d="M836,87L706,190L853,214Z" fill="#f2e3be" stroke="#f2e3be"/><path d="M836,87L853,214L968,226Z" fill="#e4dfc0" stroke="#e4dfc0"/><path d="M836,87L968,226L951,18Z" fill="#ddc2ab" stroke="#ddc2ab"/><path d="M951,18L968,226L1122,53Z" fill="#cbb0a1" stroke="#cbb0a1"/><path d="M1122,53L968,226L1115,278Z" fill="#c1cab5" stroke="#c1cab5"/><path d="M1122,53L1115,278L1240,123Z" fill="#b0aca2" stroke="#b0aca2"/><path d="M1240,123L1115,278L1304,260Z" fill="#a5bdb2" stroke="#a5bdb2"/><path d="M1240,123L1304,260L1435,27Z" fill="#91898f" stroke="#91898f"/><path d="M1435,27L1304,260L1423,282Z" fill="#869298" stroke="#869298"/><path d="M1435,27L1423,282L1567,121Z" fill="#807082" stroke="#807082"/><path d="M1567,121L1423,282L1484,323Z" fill="#808c9d" stroke="#808c9d"/><path d="M1567,121L1484,323L1620,262Z" fill="#808095" stroke="#808095"/><path d="M-135,199L-129,991L-115,683Z" fill="#995577" stroke="#995577"/><path d="M-135,199L-115,683L-99,554Z" fill="#d37b85" stroke="#d37b85"/><path d="M-135,199L-99,554L-50,358Z" fill="#e3827f" stroke="#e3827f"/><path d="M-135,199L-50,358L93,231Z" fill="#e89171" stroke="#e89171"/><path d="M93,231L-50,358L16,365Z" fill="#ed9c85" stroke="#ed9c85"/><path d="M93,231L16,365L254,358Z" fill="#f6b391" stroke="#f6b391"/><path d="M93,231L254,358L279,218Z" fill="#fec78f" stroke="#fec78f"/><path d="M279,218L254,358L368,341Z" fill="#fed9a5" stroke="#fed9a5"/><path d="M279,218L368,341L343,186Z" fill="#fedf9a" stroke="#fedf9a"/><path d="M343,186L368,341L575,191Z" fill="#fff1a5" stroke="#fff1a5"/><path d="M575,191L368,341L572,379Z" fill="#fff7be" stroke="#fff7be"/><path d="M575,191L572,379L706,190Z" fill="#ffffbe" stroke="#ffffbe"/><path d="M706,190L572,379L716,414Z" fill="#fcfed7" stroke="#fcfed7"/><path d="M706,190L716,414L803,387Z" fill="#f6fce3" stroke="#f6fce3"/><path d="M706,190L803,387L853,214Z" fill="#f2fad8" stroke="#f2fad8"/><path d="M853,214L803,387L968,226Z" fill="#e6f3dd" stroke="#e6f3dd"/><path d="M968,226L803,387L1014,375Z" fill="#dbece6" stroke="#dbece6"/><path d="M968,226L1014,375L1105,321Z" fill="#c8dfda" stroke="#c8dfda"/><path d="M968,226L1105,321L1115,278Z" fill="#c2d9ce" stroke="#c2d9ce"/><path d="M1115,278L1105,321L1248,370Z" fill="#b1c8d2" stroke="#b1c8d2"/><path d="M1115,278L1248,370L1304,260Z" fill="#a4bcc6" stroke="#a4bcc6"/><path d="M1304,260L1248,370L1423,282Z" fill="#91aabd" stroke="#91aabd"/><path d="M1423,282L1248,370L1318,505Z" fill="#91a9ca" stroke="#91a9ca"/><path d="M1423,282L1318,505L1484,323Z" fill="#829bc0" stroke="#829bc0"/><path d="M1620,262L1484,323L1609,395Z" fill="#8080ab" stroke="#8080ab"/><path d="M1620,262L1609,395L1633,635Z" fill="#8080b4" stroke="#8080b4"/><path d="M-50,358L-99,554L16,365Z" fill="#e78e8c" stroke="#e78e8c"/><path d="M16,365L-99,554L30,565Z" fill="#d68d91" stroke="#d68d91"/><path d="M16,365L30,565L191,469Z" fill="#e9a79d" stroke="#e9a79d"/><path d="M16,365L191,469L254,358Z" fill="#f9baa0" stroke="#f9baa0"/><path d="M254,358L191,469L351,544Z" fill="#f9d0b4" stroke="#f9d0b4"/><path d="M254,358L351,544L368,341Z" fill="#fedeb9" stroke="#fedeb9"/><path d="M368,341L351,544L528,536Z" fill="#f3ecc8" stroke="#f3ecc8"/><path d="M368,341L528,536L572,379Z" fill="#fff6ce" stroke="#fff6ce"/><path d="M572,379L528,536L699,517Z" fill="#f2f9dd" stroke="#f2f9dd"/><path d="M572,379L699,517L716,414Z" fill="#fcfee5" stroke="#fcfee5"/><path d="M716,414L699,517L873,491Z" fill="#e8f7f3" stroke="#e8f7f3"/><path d="M716,414L873,491L803,387Z" fill="#f2faf7" stroke="#f2faf7"/><path d="M803,387L873,491L1014,375Z" fill="#e2f0f4" stroke="#e2f0f4"/><path d="M1014,375L873,491L946,526Z" fill="#d0e7f3" stroke="#d0e7f3"/><path d="M1014,375L946,526L1066,474Z" fill="#c6e0ef" stroke="#c6e0ef"/><path d="M1014,375L1066,474L1105,321Z" fill="#c2d9e4" stroke="#c2d9e4"/><path d="M1105,321L1066,474L1248,370Z" fill="#b4cbdc" stroke="#b4cbdc"/><path d="M1248,370L1066,474L1318,505Z" fill="#a4bddc" stroke="#a4bddc"/><path d="M1484,323L1318,505L1554,476Z" fill="#8093c4" stroke="#8093c4"/><path d="M1484,323L1554,476L1609,395Z" fill="#8082b6" stroke="#8082b6"/><path d="M1609,395L1554,476L1633,635Z" fill="#6978b7" stroke="#6978b7"/><path d="M-99,554L-115,683L40,639Z" fill="#9f607f" stroke="#9f607f"/><path d="M-99,554L40,639L30,565Z" fill="#b37b8c" stroke="#b37b8c"/><path d="M30,565L40,639L191,469Z" fill="#c89c9d" stroke="#c89c9d"/><path d="M191,469L40,639L232,726Z" fill="#b8959c" stroke="#b8959c"/><path d="M191,469L232,726L325,678Z" fill="#b7a5a5" stroke="#b7a5a5"/><path d="M191,469L325,678L351,544Z" fill="#d1c5b5" stroke="#d1c5b5"/><path d="M351,544L325,678L481,662Z" fill="#b6bfb7" stroke="#b6bfb7"/><path d="M351,544L481,662L528,536Z" fill="#cadac8" stroke="#cadac8"/><path d="M528,536L481,662L708,660Z" fill="#bbd3ce" stroke="#bbd3ce"/><path d="M528,536L708,660L699,517Z" fill="#cce9e0" stroke="#cce9e0"/><path d="M699,517L708,660L873,491Z" fill="#caecf3" stroke="#caecf3"/><path d="M873,491L708,660L813,728Z" fill="#aaceeb" stroke="#aaceeb"/><path d="M873,491L813,728L946,526Z" fill="#b0d9f2" stroke="#b0d9f2"/><path d="M946,526L813,728L1006,711Z" fill="#89b6e2" stroke="#89b6e2"/><path d="M946,526L1006,711L1066,474Z" fill="#9ccdeb" stroke="#9ccdeb"/><path d="M1066,474L1006,711L1180,703Z" fill="#75a9da" stroke="#75a9da"/><path d="M1066,474L1180,703L1263,647Z" fill="#6ea2d6" stroke="#6ea2d6"/><path d="M1066,474L1263,647L1318,505Z" fill="#81b1dc" stroke="#81b1dc"/><path d="M1318,505L1263,647L1419,571Z" fill="#5e92cc" stroke="#5e92cc"/><path d="M1318,505L1419,571L1554,476Z" fill="#648ec7" stroke="#648ec7"/><path d="M1419,571L1263,647L1407,669Z" fill="#4277c0" stroke="#4277c0"/><path d="M1419,571L1407,669L1633,635Z" fill="#3962b5" stroke="#3962b5"/><path d="M1419,571L1633,635L1554,476Z" fill="#5373bc" stroke="#5373bc"/><path d="M-115,683L-129,991L-38,816Z" fill="#630555" stroke="#630555"/><path d="M-115,683L-38,816L40,639Z" fill="#7d4172" stroke="#7d4172"/><path d="M40,639L-38,816L86,792Z" fill="#744173" stroke="#744173"/><path d="M40,639L86,792L232,726Z" fill="#886284" stroke="#886284"/><path d="M232,726L86,792L200,820Z" fill="#7b567f" stroke="#7b567f"/><path d="M232,726L200,820L375,815Z" fill="#7f678a" stroke="#7f678a"/><path d="M232,726L375,815L325,678Z" fill="#888298" stroke="#888298"/><path d="M325,678L375,815L481,662Z" fill="#919ca7" stroke="#919ca7"/><path d="M481,662L375,815L525,798Z" fill="#8193a8" stroke="#8193a8"/><path d="M481,662L525,798L708,660Z" fill="#97b0be" stroke="#97b0be"/><path d="M708,660L525,798L709,825Z" fill="#7e9dbd" stroke="#7e9dbd"/><path d="M708,660L709,825L770,797Z" fill="#789ac9" stroke="#789ac9"/><path d="M708,660L770,797L813,728Z" fill="#83a6d4" stroke="#83a6d4"/><path d="M813,728L770,797L1001,767Z" fill="#6991d3" stroke="#6991d3"/><path d="M813,728L1001,767L1006,711Z" fill="#6593d2" stroke="#6593d2"/><path d="M1006,711L1001,767L1180,703Z" fill="#5185cb" stroke="#5185cb"/><path d="M1180,703L1001,767L1073,852Z" fill="#3e6ec0" stroke="#3e6ec0"/><path d="M1180,703L1073,852L1226,787Z" fill="#315eb7" stroke="#315eb7"/><path d="M1180,703L1226,787L1263,647Z" fill="#396ebe" stroke="#396ebe"/><path d="M1263,647L1226,787L1407,669Z" fill="#3065b9" stroke="#3065b9"/><path d="M1407,669L1226,787L1447,778Z" fill="#1349ab" stroke="#1349ab"/><path d="M1407,669L1447,778L1633,635Z" fill="#1c45a7" stroke="#1c45a7"/><path d="M1633,635L1447,778L1573,862Z" fill="#022196" stroke="#022196"/><path d="M1633,635L1573,862L1596,964Z" fill="#000687" stroke="#000687"/><path d="M-38,816L-129,991L129,922Z" fill="#6b1551" stroke="#6b1551"/><path d="M-38,816L129,922L86,792Z" fill="#712666" stroke="#712666"/><path d="M86,792L129,922L200,820Z" fill="#78386f" stroke="#78386f"/><path d="M200,820L129,922L249,1034Z" fill="#7d4467" stroke="#7d4467"/><path d="M200,820L249,1034L389,993Z" fill="#7f566e" stroke="#7f566e"/><path d="M200,820L389,993L375,815Z" fill="#7f5e81" stroke="#7f5e81"/><path d="M375,815L389,993L525,798Z" fill="#7f7290" stroke="#7f7290"/><path d="M525,798L389,993L557,995Z" fill="#7f768d" stroke="#7f768d"/><path d="M525,798L557,995L709,825Z" fill="#807ea3" stroke="#807ea3"/><path d="M709,825L557,995L667,1015Z" fill="#7e7f9c" stroke="#7e7f9c"/><path d="M709,825L667,1015L778,1033Z" fill="#787da4" stroke="#787da4"/><path d="M709,825L778,1033L770,797Z" fill="#767cb5" stroke="#767cb5"/><path d="M770,797L778,1033L1023,953Z" fill="#6a75b5" stroke="#6a75b5"/><path d="M770,797L1023,953L1001,767Z" fill="#5b6cc0" stroke="#5b6cc0"/><path d="M1001,767L1023,953L1073,852Z" fill="#485fb5" stroke="#485fb5"/><path d="M1073,852L1023,953L1155,996Z" fill="#3f56a3" stroke="#3f56a3"/><path d="M1073,852L1155,996L1216,934Z" fill="#334a9e" stroke="#334a9e"/><path d="M1073,852L1216,934L1226,787Z" fill="#2e46a8" stroke="#2e46a8"/><path d="M1226,787L1216,934L1388,987Z" fill="#1b3396" stroke="#1b3396"/><path d="M1226,787L1388,987L1447,778Z" fill="#0d2598" stroke="#0d2598"/><path d="M1447,778L1388,987L1573,862Z" fill="#001089" stroke="#001089"/><path d="M1573,862L1388,987L1596,964Z" fill="#000879" stroke="#000879"/><path d="M-129,991L249,1034L129,922Z" fill="#732b4f" stroke="#732b4f"/><path d="M249,1034L778,1033L667,1015Z" fill="#807c83" stroke="#807c83"/><path d="M249,1034L667,1015L557,995Z" fill="#7f767d" stroke="#7f767d"/><path d="M249,1034L557,995L389,993Z" fill="#7f6e73" stroke="#7f6e73"/><path d="M778,1033L1388,987L1155,996Z" fill="#3a5294" stroke="#3a5294"/><path d="M778,1033L1155,996L1023,953Z" fill="#5165a0" stroke="#5165a0"/><path d="M1155,996L1388,987L1216,934Z" fill="#1f378c" stroke="#1f378c"/></g></svg>