<svg width="1440" height="794" xmlns="http://www.w3.org/2000/svg"><g><path d="M-158,-134L-233,283L72,-35Z" fill="#e23029" stroke="#e23029"/><path d="M-158,-134L72,-35L902,-354Z" fill="#fd4e2c" stroke="#fd4e2c"/><path d="M72,-35L-233,283L156,232Z" fill="#eb784a" stroke="#eb784a"/><path d="M72,-35L156,232L426,-19Z" fill="#fb784a" stroke="#fb784a"/><path d="M72,-35L426,-19L902,-354Z" fill="#ff6e46" stroke="#ff6e46"/><path d="M426,-19L156,232L727,236Z" fill="#ffc576" stroke="#ffc576"/><path d="M426,-19L727,236L884,195Z" fill="#fbd598" stroke="#fbd598"/><path d="M426,-19L884,195L902,-354Z" fill="#f6807d" stroke="#f6807d"/><path d="M902,-354L884,195L1449,-326Z" fill="#c15c6c" stroke="#c15c6c"/><path d="M1449,-326L884,195L1422,314Z" fill="#a67580" stroke="#a67580"/><path d="M1449,-326L1422,314L1628,-111Z" fill="#822055" stroke="#822055"/><path d="M1628,-111L1422,314L1618,190Z" fill="#805e72" stroke="#805e72"/><path d="M1628,-111L1618,190L1945,1163Z" fill="#8080ad" stroke="#8080ad"/><path d="M-233,283L-259,1176L-73,742Z" fill="#7b3b69" stroke="#7b3b69"/><path d="M-233,283L-73,742L221,473Z" fill="#d89291" stroke="#d89291"/><path d="M-233,283L221,473L156,232Z" fill="#f0a182" stroke="#f0a182"/><path d="M156,232L221,473L727,236Z" fill="#fede9d" stroke="#fede9d"/><path d="M727,236L221,473L658,763Z" fill="#f0f5d0" stroke="#f0f5d0"/><path d="M727,236L658,763L1043,439Z" fill="#e3f8fb" stroke="#e3f8fb"/><path d="M727,236L1043,439L884,195Z" fill="#e2f2d6" stroke="#e2f2d6"/><path d="M884,195L1043,439L1422,314Z" fill="#bad7d0" stroke="#bad7d0"/><path d="M1422,314L1043,439L1390,451Z" fill="#a2b9d3" stroke="#a2b9d3"/><path d="M1422,314L1390,451L1618,190Z" fill="#8598af" stroke="#8598af"/><path d="M1618,190L1390,451L1660,691Z" fill="#7f8ac1" stroke="#7f8ac1"/><path d="M1618,190L1660,691L1945,1163Z" fill="#314fa0" stroke="#314fa0"/><path d="M-73,742L-259,1176L137,1127Z" fill="#660c3e" stroke="#660c3e"/><path d="M-73,742L137,1127L443,819Z" fill="#7b396a" stroke="#7b396a"/><path d="M-73,742L443,819L221,473Z" fill="#ad8e96" stroke="#ad8e96"/><path d="M221,473L443,819L658,763Z" fill="#afb8b2" stroke="#afb8b2"/><path d="M658,763L443,819L834,1179Z" fill="#7f80a3" stroke="#7f80a3"/><path d="M658,763L834,1179L1349,1098Z" fill="#586ea5" stroke="#586ea5"/><path d="M658,763L1349,1098L1043,439Z" fill="#6293d1" stroke="#6293d1"/><path d="M1043,439L1349,1098L1390,451Z" fill="#5c94d0" stroke="#5c94d0"/><path d="M1390,451L1349,1098L1660,691Z" fill="#2350ad" stroke="#2350ad"/><path d="M1660,691L1349,1098L1945,1163Z" fill="#00006f" stroke="#00006f"/><path d="M-259,1176L834,1179L137,1127Z" fill="#7c463d" stroke="#7c463d"/><path d="M137,1127L834,1179L443,819Z" fill="#7f6f72" stroke="#7f6f72"/><path d="M834,1179L1945,1163L1349,1098Z" fill="#152a68" stroke="#152a68"/></g></svg>