<svg width="1440" height="794" xmlns="http://www.w3.org/2000/svg"><g><path d="M-175,-238L-212,933L-161,449Z" fill="#db807a" stroke="#db807a"/><path d="M-175,-238L-161,449L-99,263Z" fill="#de603d" stroke="#de603d"/><path d="M-175,-238L-99,263L181,43Z" fill="#e8382d" stroke="#e8382d"/><path d="M-175,-238L181,43L204,-207Z" fill="#f2261a" stroke="#f2261a"/><path d="M-175,-238L204,-207L1158,-250Z" fill="#fe633c" stroke="#fe633c"/><path d="M204,-207L181,43L333,-91Z" fill="#fc4730" stroke="#fc4730"/><path d="M204,-207L333,-91L739,-16Z" fill="#ff6843" stroke="#ff6843"/><path d="M204,-207L739,-16L1158,-250Z" fill="#f97d6a" stroke="#f97d6a"/><path d="M333,-91L181,43L460,240Z" fill="#fe8f55" stroke="#fe8f55"/><path d="M333,-91L460,240L662,111Z" fill="#ffb170" stroke="#ffb170"/><path d="M333,-91L662,111L739,-16Z" fill="#ff976e" stroke="#ff976e"/><path d="M739,-16L662,111L1145,25Z" fill="#e8a398" stroke="#e8a398"/><path d="M739,-16L1145,25L1158,-250Z" fill="#cc6578" stroke="#cc6578"/><path d="M1158,-250L1145,25L1421,-126Z" fill="#a8425e" stroke="#a8425e"/><path d="M1158,-250L1421,-126L1551,-236Z" fill="#942a51" stroke="#942a51"/><path d="M1421,-126L1145,25L1354,117Z" fill="#9e5570" stroke="#9e5570"/><path d="M1421,-126L1354,117L1519,83Z" fill="#8c4769" stroke="#8c4769"/><path d="M1421,-126L1519,83L1551,-236Z" fill="#82154c" stroke="#82154c"/><path d="M1551,-236L1519,83L1696,496Z" fill="#80516b" stroke="#80516b"/><path d="M-99,263L-161,449L147,338Z" fill="#e89181" stroke="#e89181"/><path d="M-99,263L147,338L181,43Z" fill="#f29960" stroke="#f29960"/><path d="M181,43L147,338L460,240Z" fill="#fdbc6f" stroke="#fdbc6f"/><path d="M460,240L147,338L457,518Z" fill="#fedcaa" stroke="#fedcaa"/><path d="M460,240L457,518L808,501Z" fill="#fff9d2" stroke="#fff9d2"/><path d="M460,240L808,501L662,111Z" fill="#ffffbc" stroke="#ffffbc"/><path d="M662,111L808,501L1145,25Z" fill="#e4e5be" stroke="#e4e5be"/><path d="M1145,25L808,501L1155,494Z" fill="#c8e2dd" stroke="#c8e2dd"/><path d="M1145,25L1155,494L1363,358Z" fill="#abc5bf" stroke="#abc5bf"/><path d="M1145,25L1363,358L1354,117Z" fill="#a19c91" stroke="#a19c91"/><path d="M1354,117L1363,358L1519,83Z" fill="#8f8e8b" stroke="#8f8e8b"/><path d="M1519,83L1363,358L1696,496Z" fill="#808fa9" stroke="#808fa9"/><path d="M-161,449L-212,933L-28,829Z" fill="#7f3a6e" stroke="#7f3a6e"/><path d="M-161,449L-28,829L139,767Z" fill="#9b6482" stroke="#9b6482"/><path d="M-161,449L139,767L147,338Z" fill="#d9a097" stroke="#d9a097"/><path d="M147,338L139,767L385,695Z" fill="#c8b0a5" stroke="#c8b0a5"/><path d="M147,338L385,695L457,518Z" fill="#e8d8b2" stroke="#e8d8b2"/><path d="M457,518L385,695L782,718Z" fill="#bcd3c9" stroke="#bcd3c9"/><path d="M457,518L782,718L808,501Z" fill="#cff0e5" stroke="#cff0e5"/><path d="M808,501L782,718L928,794Z" fill="#9ec9ec" stroke="#9ec9ec"/><path d="M808,501L928,794L1155,494Z" fill="#a2d9f1" stroke="#a2d9f1"/><path d="M1155,494L928,794L1008,944Z" fill="#679ad3" stroke="#679ad3"/><path d="M1155,494L1008,944L1426,882Z" fill="#4375c0" stroke="#4375c0"/><path d="M1155,494L1426,882L1526,810Z" fill="#3768b9" stroke="#3768b9"/><path d="M1155,494L1526,810L1363,358Z" fill="#76a7d3" stroke="#76a7d3"/><path d="M1363,358L1526,810L1696,496Z" fill="#5d88c2" stroke="#5d88c2"/><path d="M1696,496L1526,810L1655,1079Z" fill="#0d2495" stroke="#0d2495"/><path d="M-28,829L-212,933L276,964Z" fill="#6d1b59" stroke="#6d1b59"/><path d="M-28,829L276,964L139,767Z" fill="#773e6e" stroke="#773e6e"/><path d="M139,767L276,964L385,695Z" fill="#866b83" stroke="#866b83"/><path d="M385,695L276,964L581,1028Z" fill="#7f6686" stroke="#7f6686"/><path d="M385,695L581,1028L782,718Z" fill="#8797ae" stroke="#8797ae"/><path d="M782,718L581,1028L764,1102Z" fill="#797da9" stroke="#797da9"/><path d="M782,718L764,1102L928,794Z" fill="#6c7ec7" stroke="#6c7ec7"/><path d="M928,794L764,1102L1008,944Z" fill="#6072b5" stroke="#6072b5"/><path d="M1426,882L1008,944L1244,1079Z" fill="#2b4498" stroke="#2b4498"/><path d="M1426,882L1244,1079L1655,1079Z" fill="#0b1e7c" stroke="#0b1e7c"/><path d="M1426,882L1655,1079L1526,810Z" fill="#000e85" stroke="#000e85"/><path d="M-212,933L764,1102L276,964Z" fill="#7e4e60" stroke="#7e4e60"/><path d="M276,964L764,1102L581,1028Z" fill="#7f767e" stroke="#7f767e"/><path d="M764,1102L1655,1079L1244,1079Z" fill="#2b4582" stroke="#2b4582"/><path d="M764,1102L1244,1079L1008,944Z" fill="#4e679c" stroke="#4e679c"/></g></svg>